<svg width="800" height="446" viewBox="0 0 800 446" fill="none" xmlns="http://www.w3.org/2000/svg">
<g clip-path="url(#clip0_575_31939)">
<path d="M127.794 286.167C128.977 286.167 129.935 285.209 129.935 284.026C129.935 282.843 128.977 281.885 127.794 281.885C126.612 281.885 125.653 282.843 125.653 284.026C125.653 285.209 126.612 286.167 127.794 286.167Z" fill="#DB673D" stroke="#DB673D" stroke-width="0.608137" stroke-miterlimit="10" stroke-linecap="round" stroke-linejoin="round"/>
<path d="M149.892 289.422C151.075 289.422 152.034 288.464 152.034 287.281C152.034 286.098 151.075 285.14 149.892 285.14C148.71 285.14 147.751 286.098 147.751 287.281C147.751 288.464 148.71 289.422 149.892 289.422Z" fill="#DB673D" stroke="#DB673D" stroke-width="0.608137" stroke-miterlimit="10" stroke-linecap="round" stroke-linejoin="round"/>
<path d="M171.905 212.334C173.088 212.334 174.047 211.376 174.047 210.193C174.047 209.01 173.088 208.052 171.905 208.052C170.723 208.052 169.764 209.01 169.764 210.193C169.764 211.376 170.723 212.334 171.905 212.334Z" fill="#DB673D" stroke="#DB673D" stroke-width="0.608137" stroke-miterlimit="10" stroke-linecap="round" stroke-linejoin="round"/>
<path d="M193.918 212.334C195.101 212.334 196.06 211.376 196.06 210.193C196.06 209.01 195.101 208.052 193.918 208.052C192.736 208.052 191.777 209.01 191.777 210.193C191.777 211.376 192.736 212.334 193.918 212.334Z" fill="#DB673D" stroke="#DB673D" stroke-width="0.608137" stroke-miterlimit="10" stroke-linecap="round" stroke-linejoin="round"/>
<path d="M216.017 165.825C217.199 165.825 218.158 164.866 218.158 163.683C218.158 162.501 217.199 161.542 216.017 161.542C214.834 161.542 213.875 162.501 213.875 163.683C213.875 164.866 214.834 165.825 216.017 165.825Z" fill="#DB673D" stroke="#DB673D" stroke-width="0.608137" stroke-miterlimit="10" stroke-linecap="round" stroke-linejoin="round"/>
<path d="M260.128 207.452C261.311 207.452 262.269 206.493 262.269 205.31C262.269 204.128 261.311 203.169 260.128 203.169C258.946 203.169 257.987 204.128 257.987 205.31C257.987 206.493 258.946 207.452 260.128 207.452Z" fill="#DB673D" stroke="#DB673D" stroke-width="0.608137" stroke-miterlimit="10" stroke-linecap="round" stroke-linejoin="round"/>
<path d="M282.141 256.446C283.324 256.446 284.283 255.487 284.283 254.304C284.283 253.122 283.324 252.163 282.141 252.163C280.959 252.163 280 253.122 280 254.304C280 255.487 280.959 256.446 282.141 256.446Z" fill="#DB673D" stroke="#DB673D" stroke-width="0.608137" stroke-miterlimit="10" stroke-linecap="round" stroke-linejoin="round"/>
<path d="M304.239 263.555C305.422 263.555 306.381 262.596 306.381 261.414C306.381 260.231 305.422 259.272 304.239 259.272C303.057 259.272 302.098 260.231 302.098 261.414C302.098 262.596 303.057 263.555 304.239 263.555Z" fill="#DB673D" stroke="#DB673D" stroke-width="0.608137" stroke-miterlimit="10" stroke-linecap="round" stroke-linejoin="round"/>
<path d="M326.253 51.5629C327.435 51.5629 328.394 50.6042 328.394 49.4216C328.394 48.239 327.435 47.2803 326.253 47.2803C325.07 47.2803 324.111 48.239 324.111 49.4216C324.111 50.6042 325.07 51.5629 326.253 51.5629Z" fill="#DB673D" stroke="#DB673D" stroke-width="0.608137" stroke-miterlimit="10" stroke-linecap="round" stroke-linejoin="round"/>
<path d="M348.265 248.909C349.448 248.909 350.407 247.95 350.407 246.767C350.407 245.585 349.448 244.626 348.265 244.626C347.083 244.626 346.124 245.585 346.124 246.767C346.124 247.95 347.083 248.909 348.265 248.909Z" fill="#DB673D" stroke="#DB673D" stroke-width="0.608137" stroke-miterlimit="10" stroke-linecap="round" stroke-linejoin="round"/>
<path d="M370.364 165.996C371.547 165.996 372.505 165.037 372.505 163.854C372.505 162.672 371.547 161.713 370.364 161.713C369.181 161.713 368.223 162.672 368.223 163.854C368.223 165.037 369.181 165.996 370.364 165.996Z" fill="#DB673D" stroke="#DB673D" stroke-width="0.608137" stroke-miterlimit="10" stroke-linecap="round" stroke-linejoin="round"/>
<path d="M392.377 323.683C393.559 323.683 394.518 322.724 394.518 321.542C394.518 320.359 393.559 319.4 392.377 319.4C391.194 319.4 390.235 320.359 390.235 321.542C390.235 322.724 391.194 323.683 392.377 323.683Z" fill="#DB673D" stroke="#DB673D" stroke-width="0.608137" stroke-miterlimit="10" stroke-linecap="round" stroke-linejoin="round"/>
<path d="M414.475 311.348C415.658 311.348 416.617 310.389 416.617 309.207C416.617 308.024 415.658 307.065 414.475 307.065C413.293 307.065 412.334 308.024 412.334 309.207C412.334 310.389 413.293 311.348 414.475 311.348Z" fill="#DB673D" stroke="#DB673D" stroke-width="0.608137" stroke-miterlimit="10" stroke-linecap="round" stroke-linejoin="round"/>
<path d="M436.488 318.542C437.671 318.542 438.629 317.584 438.629 316.401C438.629 315.218 437.671 314.26 436.488 314.26C435.305 314.26 434.347 315.218 434.347 316.401C434.347 317.584 435.305 318.542 436.488 318.542Z" fill="#DB673D" stroke="#DB673D" stroke-width="0.608137" stroke-miterlimit="10" stroke-linecap="round" stroke-linejoin="round"/>
<path d="M458.587 358.03C459.769 358.03 460.728 357.071 460.728 355.888C460.728 354.706 459.769 353.747 458.587 353.747C457.404 353.747 456.445 354.706 456.445 355.888C456.445 357.071 457.404 358.03 458.587 358.03Z" fill="#DB673D" stroke="#DB673D" stroke-width="0.608137" stroke-miterlimit="10" stroke-linecap="round" stroke-linejoin="round"/>
<path d="M480.599 170.194C481.782 170.194 482.741 169.235 482.741 168.052C482.741 166.87 481.782 165.911 480.599 165.911C479.417 165.911 478.458 166.87 478.458 168.052C478.458 169.235 479.417 170.194 480.599 170.194Z" fill="#DB673D" stroke="#DB673D" stroke-width="0.608137" stroke-miterlimit="10" stroke-linecap="round" stroke-linejoin="round"/>
<path d="M502.612 116.059C503.795 116.059 504.753 115.1 504.753 113.918C504.753 112.735 503.795 111.776 502.612 111.776C501.429 111.776 500.471 112.735 500.471 113.918C500.471 115.1 501.429 116.059 502.612 116.059Z" fill="#DB673D" stroke="#DB673D" stroke-width="0.608137" stroke-miterlimit="10" stroke-linecap="round" stroke-linejoin="round"/>
<path d="M524.711 275.889C525.893 275.889 526.852 274.93 526.852 273.748C526.852 272.565 525.893 271.606 524.711 271.606C523.528 271.606 522.569 272.565 522.569 273.748C522.569 274.93 523.528 275.889 524.711 275.889Z" fill="#DB673D" stroke="#DB673D" stroke-width="0.608137" stroke-miterlimit="10" stroke-linecap="round" stroke-linejoin="round"/>
<path d="M546.723 303.297C547.906 303.297 548.865 302.339 548.865 301.156C548.865 299.973 547.906 299.015 546.723 299.015C545.541 299.015 544.582 299.973 544.582 301.156C544.582 302.339 545.541 303.297 546.723 303.297Z" fill="#DB673D" stroke="#DB673D" stroke-width="0.608137" stroke-miterlimit="10" stroke-linecap="round" stroke-linejoin="round"/>
<path d="M568.822 291.563C570.005 291.563 570.963 290.604 570.963 289.422C570.963 288.239 570.005 287.28 568.822 287.28C567.639 287.28 566.681 288.239 566.681 289.422C566.681 290.604 567.639 291.563 568.822 291.563Z" fill="#DB673D" stroke="#DB673D" stroke-width="0.608137" stroke-miterlimit="10" stroke-linecap="round" stroke-linejoin="round"/>
<path d="M590.835 240.77C592.017 240.77 592.976 239.811 592.976 238.629C592.976 237.446 592.017 236.487 590.835 236.487C589.652 236.487 588.693 237.446 588.693 238.629C588.693 239.811 589.652 240.77 590.835 240.77Z" fill="#DB673D" stroke="#DB673D" stroke-width="0.608137" stroke-miterlimit="10" stroke-linecap="round" stroke-linejoin="round"/>
<path d="M612.933 354.86C614.116 354.86 615.075 353.901 615.075 352.718C615.075 351.536 614.116 350.577 612.933 350.577C611.751 350.577 610.792 351.536 610.792 352.718C610.792 353.901 611.751 354.86 612.933 354.86Z" fill="#DB673D" stroke="#DB673D" stroke-width="0.608137" stroke-miterlimit="10" stroke-linecap="round" stroke-linejoin="round"/>
<path d="M634.946 217.988C636.129 217.988 637.087 217.029 637.087 215.846C637.087 214.664 636.129 213.705 634.946 213.705C633.763 213.705 632.805 214.664 632.805 215.846C632.805 217.029 633.763 217.988 634.946 217.988Z" fill="#DB673D" stroke="#DB673D" stroke-width="0.608137" stroke-miterlimit="10" stroke-linecap="round" stroke-linejoin="round"/>
<path d="M656.959 141.842C658.141 141.842 659.1 140.884 659.1 139.701C659.1 138.518 658.141 137.56 656.959 137.56C655.776 137.56 654.817 138.518 654.817 139.701C654.817 140.884 655.776 141.842 656.959 141.842Z" fill="#DB673D" stroke="#DB673D" stroke-width="0.608137" stroke-miterlimit="10" stroke-linecap="round" stroke-linejoin="round"/>
<path d="M679.057 302.871C680.24 302.871 681.199 301.912 681.199 300.729C681.199 299.547 680.24 298.588 679.057 298.588C677.875 298.588 676.916 299.547 676.916 300.729C676.916 301.912 677.875 302.871 679.057 302.871Z" fill="#DB673D" stroke="#DB673D" stroke-width="0.608137" stroke-miterlimit="10" stroke-linecap="round" stroke-linejoin="round"/>
<path d="M701.07 283.34C702.253 283.34 703.211 282.382 703.211 281.199C703.211 280.016 702.253 279.058 701.07 279.058C699.887 279.058 698.929 280.016 698.929 281.199C698.929 282.382 699.887 283.34 701.07 283.34Z" fill="#DB673D" stroke="#DB673D" stroke-width="0.608137" stroke-miterlimit="10" stroke-linecap="round" stroke-linejoin="round"/>
<path d="M723.169 252.676C724.352 252.676 725.31 251.718 725.31 250.535C725.31 249.352 724.352 248.394 723.169 248.394C721.987 248.394 721.028 249.352 721.028 250.535C721.028 251.718 721.987 252.676 723.169 252.676Z" fill="#DB673D" stroke="#DB673D" stroke-width="0.608137" stroke-miterlimit="10" stroke-linecap="round" stroke-linejoin="round"/>
<path d="M745.181 257.045C746.364 257.045 747.323 256.087 747.323 254.904C747.323 253.721 746.364 252.763 745.181 252.763C743.999 252.763 743.04 253.721 743.04 254.904C743.04 256.087 743.999 257.045 745.181 257.045Z" fill="#DB673D" stroke="#DB673D" stroke-width="0.608137" stroke-miterlimit="10" stroke-linecap="round" stroke-linejoin="round"/>
<path d="M767.195 270.835C768.377 270.835 769.336 269.877 769.336 268.694C769.336 267.511 768.377 266.553 767.195 266.553C766.012 266.553 765.053 267.511 765.053 268.694C765.053 269.877 766.012 270.835 767.195 270.835Z" fill="#DB673D" stroke="#DB673D" stroke-width="0.608137" stroke-miterlimit="10" stroke-linecap="round" stroke-linejoin="round"/>
<path d="M127.794 284.025L149.893 287.28L171.906 210.192H193.919L216.017 163.682L260.128 205.31L282.141 254.303L304.24 261.412L326.253 49.4209L348.266 246.766L370.364 163.853L392.377 321.541L414.475 309.207L436.488 316.402L458.587 355.888L480.6 168.05L502.612 113.918L524.711 273.746L546.724 301.155L568.822 289.421L590.835 238.629L612.934 352.719L634.946 215.845L656.959 139.699L679.058 300.727L701.071 281.198L723.169 250.534L745.182 254.903L767.195 268.693" stroke="#DB673D" stroke-opacity="0.5" stroke-width="0.916488" stroke-miterlimit="10" stroke-linejoin="round"/>
<path opacity="0.3" d="M95.8462 319.058H799.229" stroke="#EBEBEB" stroke-width="0.453961" stroke-miterlimit="10" stroke-linejoin="round"/>
<path opacity="0.3" d="M95.8462 245.226H799.229" stroke="#EBEBEB" stroke-width="0.453961" stroke-miterlimit="10" stroke-linejoin="round"/>
<path opacity="0.3" d="M95.8462 171.478H799.229" stroke="#EBEBEB" stroke-width="0.453961" stroke-miterlimit="10" stroke-linejoin="round"/>
<path opacity="0.3" d="M95.8462 97.7305H799.229" stroke="#EBEBEB" stroke-width="0.453961" stroke-miterlimit="10" stroke-linejoin="round"/>
<path opacity="0.3" d="M127.795 371.22V34.0898" stroke="#EBEBEB" stroke-width="0.453961" stroke-miterlimit="10" stroke-linejoin="round"/>
<path opacity="0.3" d="M171.906 371.22V34.0898" stroke="#EBEBEB" stroke-width="0.453961" stroke-miterlimit="10" stroke-linejoin="round"/>
<path opacity="0.3" d="M216.018 371.22V34.0898" stroke="#EBEBEB" stroke-width="0.453961" stroke-miterlimit="10" stroke-linejoin="round"/>
<path opacity="0.3" d="M260.129 371.22V34.0898" stroke="#EBEBEB" stroke-width="0.453961" stroke-miterlimit="10" stroke-linejoin="round"/>
<path opacity="0.3" d="M304.24 371.22V34.0898" stroke="#EBEBEB" stroke-width="0.453961" stroke-miterlimit="10" stroke-linejoin="round"/>
<path opacity="0.3" d="M348.267 371.22V34.0898" stroke="#EBEBEB" stroke-width="0.453961" stroke-miterlimit="10" stroke-linejoin="round"/>
<path opacity="0.3" d="M392.377 371.22V34.0898" stroke="#EBEBEB" stroke-width="0.453961" stroke-miterlimit="10" stroke-linejoin="round"/>
<path opacity="0.3" d="M436.489 371.22V34.0898" stroke="#EBEBEB" stroke-width="0.453961" stroke-miterlimit="10" stroke-linejoin="round"/>
<path opacity="0.3" d="M480.6 371.22V34.0898" stroke="#EBEBEB" stroke-width="0.453961" stroke-miterlimit="10" stroke-linejoin="round"/>
<path opacity="0.3" d="M524.712 371.22V34.0898" stroke="#EBEBEB" stroke-width="0.453961" stroke-miterlimit="10" stroke-linejoin="round"/>
<path opacity="0.3" d="M568.823 371.22V34.0898" stroke="#EBEBEB" stroke-width="0.453961" stroke-miterlimit="10" stroke-linejoin="round"/>
<path opacity="0.3" d="M612.934 371.22V34.0898" stroke="#EBEBEB" stroke-width="0.453961" stroke-miterlimit="10" stroke-linejoin="round"/>
<path opacity="0.3" d="M656.959 371.22V34.0898" stroke="#EBEBEB" stroke-width="0.453961" stroke-miterlimit="10" stroke-linejoin="round"/>
<path opacity="0.3" d="M701.071 371.22V34.0898" stroke="#EBEBEB" stroke-width="0.453961" stroke-miterlimit="10" stroke-linejoin="round"/>
<path opacity="0.3" d="M745.182 371.22V34.0898" stroke="#EBEBEB" stroke-width="0.453961" stroke-miterlimit="10" stroke-linejoin="round"/>
<path opacity="0.3" d="M789.293 371.22V34.0898" stroke="#EBEBEB" stroke-width="0.453961" stroke-miterlimit="10" stroke-linejoin="round"/>
<path opacity="0.3" d="M95.8462 355.888H799.229" stroke="#EBEBEB" stroke-width="0.916488" stroke-miterlimit="10" stroke-linejoin="round"/>
<path opacity="0.3" d="M95.8462 282.142H799.229" stroke="#EBEBEB" stroke-width="0.916488" stroke-miterlimit="10" stroke-linejoin="round"/>
<path opacity="0.3" d="M95.8462 208.394H799.229" stroke="#EBEBEB" stroke-width="0.916488" stroke-miterlimit="10" stroke-linejoin="round"/>
<path opacity="0.3" d="M95.8462 134.562H799.229" stroke="#EBEBEB" stroke-width="0.916488" stroke-miterlimit="10" stroke-linejoin="round"/>
<path opacity="0.3" d="M95.8462 60.8135H799.229" stroke="#EBEBEB" stroke-width="0.916488" stroke-miterlimit="10" stroke-linejoin="round"/>
<path opacity="0.3" d="M105.782 371.22V34.0898" stroke="#EBEBEB" stroke-width="0.916488" stroke-miterlimit="10" stroke-linejoin="round"/>
<path opacity="0.3" d="M149.893 371.22V34.0898" stroke="#EBEBEB" stroke-width="0.916488" stroke-miterlimit="10" stroke-linejoin="round"/>
<path opacity="0.3" d="M193.919 371.22V34.0898" stroke="#EBEBEB" stroke-width="0.916488" stroke-miterlimit="10" stroke-linejoin="round"/>
<path opacity="0.3" d="M238.03 371.22V34.0898" stroke="#EBEBEB" stroke-width="0.916488" stroke-miterlimit="10" stroke-linejoin="round"/>
<path opacity="0.3" d="M282.142 371.22V34.0898" stroke="#EBEBEB" stroke-width="0.916488" stroke-miterlimit="10" stroke-linejoin="round"/>
<path opacity="0.3" d="M326.253 371.22V34.0898" stroke="#EBEBEB" stroke-width="0.916488" stroke-miterlimit="10" stroke-linejoin="round"/>
<path opacity="0.3" d="M370.365 371.22V34.0898" stroke="#EBEBEB" stroke-width="0.916488" stroke-miterlimit="10" stroke-linejoin="round"/>
<path opacity="0.3" d="M414.476 371.22V34.0898" stroke="#EBEBEB" stroke-width="0.916488" stroke-miterlimit="10" stroke-linejoin="round"/>
<path opacity="0.3" d="M458.587 371.22V34.0898" stroke="#EBEBEB" stroke-width="0.916488" stroke-miterlimit="10" stroke-linejoin="round"/>
<path opacity="0.3" d="M502.613 371.22V34.0898" stroke="#EBEBEB" stroke-width="0.916488" stroke-miterlimit="10" stroke-linejoin="round"/>
<path opacity="0.3" d="M546.725 371.22V34.0898" stroke="#EBEBEB" stroke-width="0.916488" stroke-miterlimit="10" stroke-linejoin="round"/>
<path opacity="0.3" d="M590.836 371.22V34.0898" stroke="#EBEBEB" stroke-width="0.916488" stroke-miterlimit="10" stroke-linejoin="round"/>
<path opacity="0.3" d="M634.947 371.22V34.0898" stroke="#EBEBEB" stroke-width="0.916488" stroke-miterlimit="10" stroke-linejoin="round"/>
<path opacity="0.3" d="M679.059 371.22V34.0898" stroke="#EBEBEB" stroke-width="0.916488" stroke-miterlimit="10" stroke-linejoin="round"/>
<path opacity="0.3" d="M723.17 371.22V34.0898" stroke="#EBEBEB" stroke-width="0.916488" stroke-miterlimit="10" stroke-linejoin="round"/>
<path opacity="0.3" d="M767.195 371.22V34.0898" stroke="#EBEBEB" stroke-width="0.916488" stroke-miterlimit="10" stroke-linejoin="round"/>
<path d="M81.9886 354.694C81.9886 353.824 82.0773 353.125 82.2546 352.596C82.4353 352.064 82.7013 351.654 83.0526 351.366C83.4072 351.079 83.8522 350.935 84.3876 350.935C84.7824 350.935 85.1287 351.015 85.4264 351.176C85.7242 351.333 85.9701 351.562 86.1642 351.863C86.3583 352.161 86.5105 352.526 86.6209 352.957C86.7313 353.386 86.7865 353.964 86.7865 354.694C86.7865 355.557 86.6979 356.255 86.5205 356.787C86.3432 357.315 86.0772 357.725 85.7225 358.016C85.3712 358.304 84.9262 358.448 84.3876 358.448C83.6782 358.448 83.1212 358.193 82.7163 357.685C82.2312 357.073 81.9886 356.076 81.9886 354.694ZM82.9171 354.694C82.9171 355.902 83.0576 356.706 83.3386 357.108C83.623 357.506 83.9727 357.705 84.3876 357.705C84.8024 357.705 85.1504 357.504 85.4315 357.103C85.7159 356.701 85.8581 355.898 85.8581 354.694C85.8581 353.483 85.7159 352.678 85.4315 352.28C85.1504 351.882 84.7991 351.682 84.3775 351.682C83.9626 351.682 83.6314 351.858 83.3838 352.209C83.0727 352.658 82.9171 353.486 82.9171 354.694Z" fill="white"/>
<path d="M66.731 283.689V284.558H61.8678C61.8611 284.34 61.8962 284.131 61.9732 283.93C62.097 283.599 62.2944 283.273 62.5654 282.952C62.8398 282.63 63.2346 282.259 63.7498 281.837C64.5495 281.182 65.0898 280.663 65.3709 280.282C65.6519 279.897 65.7925 279.534 65.7925 279.193C65.7925 278.835 65.6636 278.533 65.406 278.289C65.1517 278.042 64.8188 277.918 64.4073 277.918C63.9723 277.918 63.6244 278.048 63.3634 278.309C63.1024 278.57 62.9703 278.932 62.9669 279.393L62.0384 279.298C62.102 278.605 62.3412 278.078 62.7561 277.717C63.171 277.352 63.7281 277.17 64.4274 277.17C65.1333 277.17 65.6921 277.366 66.1036 277.757C66.5152 278.149 66.7209 278.634 66.7209 279.213C66.7209 279.507 66.6607 279.797 66.5402 280.081C66.4198 280.365 66.219 280.665 65.938 280.979C65.6603 281.294 65.1969 281.725 64.5478 282.274C64.0058 282.729 63.6578 283.039 63.5039 283.203C63.35 283.363 63.2229 283.525 63.1225 283.689H66.731ZM68.1914 284.558V283.529H69.2203V284.558C69.2203 284.936 69.1533 285.24 69.0195 285.471C68.8857 285.705 68.6732 285.886 68.3821 286.013L68.1312 285.627C68.3219 285.543 68.4624 285.419 68.5528 285.255C68.6431 285.095 68.6933 284.862 68.7033 284.558H68.1914ZM70.5653 282.63L71.5138 282.55C71.5841 283.012 71.7464 283.36 72.0006 283.594C72.2583 283.825 72.5678 283.94 72.9291 283.94C73.3641 283.94 73.7321 283.776 74.0332 283.448C74.3343 283.121 74.4849 282.686 74.4849 282.144C74.4849 281.628 74.3394 281.222 74.0483 280.924C73.7605 280.626 73.3825 280.477 72.914 280.477C72.623 280.477 72.3603 280.544 72.1261 280.678C71.8919 280.809 71.7079 280.979 71.574 281.19L70.7259 281.08L71.4385 277.301H75.0972V278.164H72.1612L71.7648 280.141C72.2064 279.833 72.6698 279.679 73.1549 279.679C73.7973 279.679 74.3394 279.902 74.781 280.347C75.2227 280.792 75.4435 281.364 75.4435 282.063C75.4435 282.729 75.2494 283.305 74.8613 283.79C74.3896 284.385 73.7455 284.683 72.9291 284.683C72.2599 284.683 71.7129 284.496 71.288 284.121C70.8664 283.746 70.6255 283.249 70.5653 282.63ZM76.2866 280.929C76.2866 280.059 76.3753 279.36 76.5526 278.831C76.7333 278.299 76.9993 277.889 77.3506 277.602C77.7053 277.314 78.1503 277.17 78.6856 277.17C79.0804 277.17 79.4267 277.25 79.7245 277.411C80.0222 277.568 80.2682 277.797 80.4622 278.099C80.6563 278.396 80.8085 278.761 80.9189 279.193C81.0293 279.621 81.0845 280.2 81.0845 280.929C81.0845 281.792 80.9959 282.49 80.8186 283.022C80.6412 283.551 80.3752 283.96 80.0206 284.251C79.6693 284.539 79.2243 284.683 78.6856 284.683C77.9763 284.683 77.4192 284.429 77.0144 283.92C76.5292 283.308 76.2866 282.311 76.2866 280.929ZM77.2151 280.929C77.2151 282.137 77.3556 282.942 77.6367 283.343C77.9211 283.741 78.2707 283.94 78.6856 283.94C79.1005 283.94 79.4484 283.74 79.7295 283.338C80.0139 282.937 80.1561 282.134 80.1561 280.929C80.1561 279.718 80.0139 278.913 79.7295 278.515C79.4484 278.117 79.0971 277.918 78.6756 277.918C78.2607 277.918 77.9294 278.093 77.6818 278.445C77.3707 278.893 77.2151 279.721 77.2151 280.929ZM82.008 280.929C82.008 280.059 82.0967 279.36 82.274 278.831C82.4547 278.299 82.7207 277.889 83.072 277.602C83.4266 277.314 83.8716 277.17 84.407 277.17C84.8018 277.17 85.1481 277.25 85.4458 277.411C85.7436 277.568 85.9895 277.797 86.1836 278.099C86.3776 278.396 86.5299 278.761 86.6403 279.193C86.7507 279.621 86.8059 280.2 86.8059 280.929C86.8059 281.792 86.7172 282.49 86.5399 283.022C86.3626 283.551 86.0966 283.96 85.7419 284.251C85.3906 284.539 84.9456 284.683 84.407 284.683C83.6976 284.683 83.1406 284.429 82.7357 283.92C82.2506 283.308 82.008 282.311 82.008 280.929ZM82.9365 280.929C82.9365 282.137 83.077 282.942 83.358 283.343C83.6424 283.741 83.9921 283.94 84.407 283.94C84.8218 283.94 85.1698 283.74 85.4508 283.338C85.7352 282.937 85.8774 282.134 85.8774 280.929C85.8774 279.718 85.7352 278.913 85.4508 278.515C85.1698 278.117 84.8185 277.918 84.3969 277.918C83.982 277.918 83.6508 278.093 83.4032 278.445C83.092 278.893 82.9365 279.721 82.9365 280.929Z" fill="white"/>
<path d="M61.9832 208.866L62.9318 208.785C63.002 209.247 63.1643 209.595 63.4186 209.829C63.6762 210.06 63.9857 210.176 64.3471 210.176C64.782 210.176 65.1501 210.012 65.4512 209.684C65.7523 209.356 65.9029 208.921 65.9029 208.379C65.9029 207.864 65.7573 207.457 65.4662 207.159C65.1785 206.862 64.8004 206.713 64.332 206.713C64.0409 206.713 63.7783 206.78 63.5441 206.913C63.3099 207.044 63.1258 207.215 62.992 207.425L62.1438 207.315L62.8565 203.536H66.5152V204.399H63.5792L63.1827 206.376C63.6244 206.069 64.0878 205.915 64.5729 205.915C65.2153 205.915 65.7573 206.137 66.199 206.582C66.6406 207.027 66.8614 207.599 66.8614 208.299C66.8614 208.964 66.6674 209.54 66.2793 210.025C65.8075 210.621 65.1634 210.918 64.3471 210.918C63.6779 210.918 63.1309 210.731 62.7059 210.356C62.2844 209.982 62.0435 209.485 61.9832 208.866ZM68.1914 210.793V209.764H69.2203V210.793C69.2203 211.171 69.1533 211.476 69.0195 211.706C68.8857 211.941 68.6732 212.121 68.3821 212.248L68.1312 211.862C68.3219 211.778 68.4624 211.655 68.5528 211.491C68.6431 211.33 68.6933 211.097 68.7033 210.793H68.1914ZM70.5653 207.164C70.5653 206.295 70.6539 205.595 70.8313 205.067C71.0119 204.535 71.2779 204.125 71.6292 203.837C71.9839 203.549 72.4289 203.405 72.9642 203.405C73.359 203.405 73.7053 203.486 74.0031 203.646C74.3009 203.804 74.5468 204.033 74.7409 204.334C74.9349 204.632 75.0872 204.996 75.1976 205.428C75.308 205.856 75.3632 206.435 75.3632 207.164C75.3632 208.028 75.2745 208.725 75.0972 209.257C74.9199 209.786 74.6539 210.196 74.2992 210.487C73.9479 210.775 73.5029 210.918 72.9642 210.918C72.2549 210.918 71.6978 210.664 71.293 210.156C70.8078 209.543 70.5653 208.546 70.5653 207.164ZM71.4937 207.164C71.4937 208.372 71.6343 209.177 71.9153 209.578C72.1997 209.977 72.5493 210.176 72.9642 210.176C73.3791 210.176 73.7271 209.975 74.0081 209.573C74.2925 209.172 74.4347 208.369 74.4347 207.164C74.4347 205.953 74.2925 205.149 74.0081 204.75C73.7271 204.352 73.3758 204.153 72.9542 204.153C72.5393 204.153 72.2081 204.329 71.9605 204.68C71.6493 205.128 71.4937 205.957 71.4937 207.164ZM76.2866 207.164C76.2866 206.295 76.3753 205.595 76.5526 205.067C76.7333 204.535 76.9993 204.125 77.3506 203.837C77.7053 203.549 78.1503 203.405 78.6856 203.405C79.0804 203.405 79.4267 203.486 79.7245 203.646C80.0222 203.804 80.2682 204.033 80.4622 204.334C80.6563 204.632 80.8085 204.996 80.9189 205.428C81.0293 205.856 81.0845 206.435 81.0845 207.164C81.0845 208.028 80.9959 208.725 80.8186 209.257C80.6412 209.786 80.3752 210.196 80.0206 210.487C79.6693 210.775 79.2243 210.918 78.6856 210.918C77.9763 210.918 77.4192 210.664 77.0144 210.156C76.5292 209.543 76.2866 208.546 76.2866 207.164ZM77.2151 207.164C77.2151 208.372 77.3556 209.177 77.6367 209.578C77.9211 209.977 78.2707 210.176 78.6856 210.176C79.1005 210.176 79.4484 209.975 79.7295 209.573C80.0139 209.172 80.1561 208.369 80.1561 207.164C80.1561 205.953 80.0139 205.149 79.7295 204.75C79.4484 204.352 79.0971 204.153 78.6756 204.153C78.2607 204.153 77.9294 204.329 77.6818 204.68C77.3707 205.128 77.2151 205.957 77.2151 207.164ZM82.008 207.164C82.008 206.295 82.0967 205.595 82.274 205.067C82.4547 204.535 82.7207 204.125 83.072 203.837C83.4266 203.549 83.8716 203.405 84.407 203.405C84.8018 203.405 85.1481 203.486 85.4458 203.646C85.7436 203.804 85.9895 204.033 86.1836 204.334C86.3776 204.632 86.5299 204.996 86.6403 205.428C86.7507 205.856 86.8059 206.435 86.8059 207.164C86.8059 208.028 86.7172 208.725 86.5399 209.257C86.3626 209.786 86.0966 210.196 85.7419 210.487C85.3906 210.775 84.9456 210.918 84.407 210.918C83.6976 210.918 83.1406 210.664 82.7357 210.156C82.2506 209.543 82.008 208.546 82.008 207.164ZM82.9365 207.164C82.9365 208.372 83.077 209.177 83.358 209.578C83.6424 209.977 83.9921 210.176 84.407 210.176C84.8218 210.176 85.1698 209.975 85.4508 209.573C85.7352 209.172 85.8774 208.369 85.8774 207.164C85.8774 205.953 85.7352 205.149 85.4508 204.75C85.1698 204.352 84.8185 204.153 84.3969 204.153C83.982 204.153 83.6508 204.329 83.4032 204.68C83.092 205.128 82.9365 205.957 82.9365 207.164Z" fill="white"/>
<path d="M62.0435 130.626V129.757H66.8062V130.46C66.3378 130.959 65.8728 131.621 65.411 132.447C64.9527 133.274 64.598 134.124 64.3471 134.997C64.1664 135.613 64.051 136.287 64.0008 137.02H63.0723C63.0823 136.441 63.1961 135.741 63.4136 134.922C63.6311 134.102 63.9422 133.312 64.3471 132.553C64.7552 131.79 65.1885 131.148 65.6469 130.626H62.0435ZM68.1914 137.02V135.991H69.2203V137.02C69.2203 137.398 69.1533 137.702 69.0195 137.933C68.8857 138.167 68.6732 138.348 68.3821 138.475L68.1312 138.089C68.3219 138.005 68.4624 137.881 68.5528 137.717C68.6431 137.557 68.6933 137.324 68.7033 137.02H68.1914ZM70.5653 135.092L71.5138 135.012C71.5841 135.474 71.7464 135.822 72.0006 136.056C72.2583 136.287 72.5678 136.402 72.9291 136.402C73.3641 136.402 73.7321 136.238 74.0332 135.91C74.3343 135.582 74.4849 135.148 74.4849 134.606C74.4849 134.09 74.3394 133.684 74.0483 133.386C73.7605 133.088 73.3825 132.939 72.914 132.939C72.623 132.939 72.3603 133.006 72.1261 133.14C71.8919 133.271 71.7079 133.441 71.574 133.652L70.7259 133.542L71.4385 129.762H75.0972V130.626H72.1612L71.7648 132.603C72.2064 132.295 72.6698 132.141 73.1549 132.141C73.7973 132.141 74.3394 132.364 74.781 132.809C75.2227 133.254 75.4435 133.826 75.4435 134.525C75.4435 135.191 75.2494 135.767 74.8613 136.252C74.3896 136.847 73.7455 137.145 72.9291 137.145C72.2599 137.145 71.7129 136.958 71.288 136.583C70.8664 136.208 70.6255 135.711 70.5653 135.092ZM76.2866 133.391C76.2866 132.521 76.3753 131.822 76.5526 131.293C76.7333 130.761 76.9993 130.351 77.3506 130.064C77.7053 129.776 78.1503 129.632 78.6856 129.632C79.0804 129.632 79.4267 129.712 79.7245 129.873C80.0222 130.03 80.2682 130.259 80.4622 130.56C80.6563 130.858 80.8085 131.223 80.9189 131.655C81.0293 132.083 81.0845 132.662 81.0845 133.391C81.0845 134.254 80.9959 134.952 80.8186 135.484C80.6412 136.012 80.3752 136.422 80.0206 136.713C79.6693 137.001 79.2243 137.145 78.6856 137.145C77.9763 137.145 77.4192 136.891 77.0144 136.382C76.5292 135.77 76.2866 134.773 76.2866 133.391ZM77.2151 133.391C77.2151 134.599 77.3556 135.403 77.6367 135.805C77.9211 136.203 78.2707 136.402 78.6856 136.402C79.1005 136.402 79.4484 136.201 79.7295 135.8C80.0139 135.398 80.1561 134.595 80.1561 133.391C80.1561 132.18 80.0139 131.375 79.7295 130.977C79.4484 130.579 79.0971 130.38 78.6756 130.38C78.2607 130.38 77.9294 130.555 77.6818 130.907C77.3707 131.355 77.2151 132.183 77.2151 133.391ZM82.008 133.391C82.008 132.521 82.0967 131.822 82.274 131.293C82.4547 130.761 82.7207 130.351 83.072 130.064C83.4266 129.776 83.8716 129.632 84.407 129.632C84.8018 129.632 85.1481 129.712 85.4458 129.873C85.7436 130.03 85.9895 130.259 86.1836 130.56C86.3776 130.858 86.5299 131.223 86.6403 131.655C86.7507 132.083 86.8059 132.662 86.8059 133.391C86.8059 134.254 86.7172 134.952 86.5399 135.484C86.3626 136.012 86.0966 136.422 85.7419 136.713C85.3906 137.001 84.9456 137.145 84.407 137.145C83.6976 137.145 83.1406 136.891 82.7357 136.382C82.2506 135.77 82.008 134.773 82.008 133.391ZM82.9365 133.391C82.9365 134.599 83.077 135.403 83.358 135.805C83.6424 136.203 83.9921 136.402 84.407 136.402C84.8218 136.402 85.1698 136.201 85.4508 135.8C85.7352 135.398 85.8774 134.595 85.8774 133.391C85.8774 132.18 85.7352 131.375 85.4508 130.977C85.1698 130.579 84.8185 130.38 84.3969 130.38C83.982 130.38 83.6508 130.555 83.4032 130.907C83.092 131.355 82.9365 132.183 82.9365 133.391Z" fill="white"/>
<path d="M59.6691 63.2559H58.7658V57.4994C58.5483 57.7068 58.2622 57.9143 57.9076 58.1217C57.5563 58.3291 57.2401 58.4847 56.959 58.5884V57.7152C57.4642 57.4776 57.9059 57.1899 58.284 56.852C58.662 56.514 58.9297 56.1861 59.087 55.8683H59.6691V63.2559ZM61.9878 59.6273C61.9878 58.7574 62.0765 58.0581 62.2538 57.5295C62.4345 56.9975 62.7005 56.5876 63.0518 56.2999C63.4064 56.0121 63.8514 55.8683 64.3868 55.8683C64.7816 55.8683 65.1279 55.9486 65.4256 56.1092C65.7234 56.2664 65.9693 56.4956 66.1634 56.7967C66.3574 57.0945 66.5097 57.4592 66.6201 57.8908C66.7305 58.3191 66.7857 58.8979 66.7857 59.6273C66.7857 60.4905 66.697 61.1881 66.5197 61.7201C66.3424 62.2488 66.0764 62.6586 65.7217 62.9497C65.3704 63.2375 64.9254 63.3813 64.3868 63.3813C63.6774 63.3813 63.1204 63.127 62.7155 62.6185C62.2304 62.0062 61.9878 61.0091 61.9878 59.6273ZM62.9163 59.6273C62.9163 60.8352 63.0568 61.6398 63.3378 62.0413C63.6222 62.4395 63.9719 62.6386 64.3868 62.6386C64.8016 62.6386 65.1496 62.4378 65.4307 62.0363C65.715 61.6348 65.8572 60.8318 65.8572 59.6273C65.8572 58.4161 65.715 57.6115 65.4307 57.2133C65.1496 56.8151 64.7983 56.6161 64.3767 56.6161C63.9618 56.6161 63.6306 56.7917 63.383 57.143C63.0718 57.5914 62.9163 58.4195 62.9163 59.6273ZM68.196 63.2559V62.227H69.2248V63.2559C69.2248 63.6339 69.1579 63.9384 69.0241 64.1693C68.8902 64.4035 68.6778 64.5842 68.3867 64.7113L68.1357 64.3249C68.3265 64.2412 68.467 64.1174 68.5573 63.9535C68.6477 63.7929 68.6978 63.5603 68.7079 63.2559H68.196ZM70.5698 59.6273C70.5698 58.7574 70.6585 58.0581 70.8358 57.5295C71.0165 56.9975 71.2825 56.5876 71.6338 56.2999C71.9885 56.0121 72.4335 55.8683 72.9688 55.8683C73.3636 55.8683 73.7099 55.9486 74.0077 56.1092C74.3054 56.2664 74.5514 56.4956 74.7454 56.7967C74.9395 57.0945 75.0917 57.4592 75.2021 57.8908C75.3125 58.3191 75.3677 58.8979 75.3677 59.6273C75.3677 60.4905 75.2791 61.1881 75.1018 61.7201C74.9244 62.2488 74.6584 62.6586 74.3038 62.9497C73.9525 63.2375 73.5075 63.3813 72.9688 63.3813C72.2595 63.3813 71.7024 63.127 71.2976 62.6185C70.8124 62.0062 70.5698 61.0091 70.5698 59.6273ZM71.4983 59.6273C71.4983 60.8352 71.6388 61.6398 71.9199 62.0413C72.2043 62.4395 72.5539 62.6386 72.9688 62.6386C73.3837 62.6386 73.7316 62.4378 74.0127 62.0363C74.2971 61.6348 74.4393 60.8318 74.4393 59.6273C74.4393 58.4161 74.2971 57.6115 74.0127 57.2133C73.7316 56.8151 73.3803 56.6161 72.9588 56.6161C72.5439 56.6161 72.2126 56.7917 71.965 57.143C71.6539 57.5914 71.4983 58.4195 71.4983 59.6273ZM76.2912 59.6273C76.2912 58.7574 76.3799 58.0581 76.5572 57.5295C76.7379 56.9975 77.0039 56.5876 77.3552 56.2999C77.7098 56.0121 78.1548 55.8683 78.6902 55.8683C79.085 55.8683 79.4313 55.9486 79.729 56.1092C80.0268 56.2664 80.2727 56.4956 80.4668 56.7967C80.6608 57.0945 80.8131 57.4592 80.9235 57.8908C81.0339 58.3191 81.0891 58.8979 81.0891 59.6273C81.0891 60.4905 81.0004 61.1881 80.8231 61.7201C80.6458 62.2488 80.3798 62.6586 80.0251 62.9497C79.6738 63.2375 79.2288 63.3813 78.6902 63.3813C77.9808 63.3813 77.4238 63.127 77.0189 62.6185C76.5338 62.0062 76.2912 61.0091 76.2912 59.6273ZM77.2197 59.6273C77.2197 60.8352 77.3602 61.6398 77.6412 62.0413C77.9256 62.4395 78.2753 62.6386 78.6902 62.6386C79.105 62.6386 79.453 62.4378 79.7341 62.0363C80.0184 61.6348 80.1606 60.8318 80.1606 59.6273C80.1606 58.4161 80.0184 57.6115 79.7341 57.2133C79.453 56.8151 79.1017 56.6161 78.6801 56.6161C78.2652 56.6161 77.934 56.7917 77.6864 57.143C77.3752 57.5914 77.2197 58.4195 77.2197 59.6273ZM82.0126 59.6273C82.0126 58.7574 82.1012 58.0581 82.2785 57.5295C82.4592 56.9975 82.7252 56.5876 83.0765 56.2999C83.4312 56.0121 83.8762 55.8683 84.4115 55.8683C84.8063 55.8683 85.1526 55.9486 85.4504 56.1092C85.7482 56.2664 85.9941 56.4956 86.1881 56.7967C86.3822 57.0945 86.5344 57.4592 86.6449 57.8908C86.7553 58.3191 86.8105 58.8979 86.8105 59.6273C86.8105 60.4905 86.7218 61.1881 86.5445 61.7201C86.3671 62.2488 86.1012 62.6586 85.7465 62.9497C85.3952 63.2375 84.9502 63.3813 84.4115 63.3813C83.7022 63.3813 83.1451 63.127 82.7403 62.6185C82.2551 62.0062 82.0126 61.0091 82.0126 59.6273ZM82.941 59.6273C82.941 60.8352 83.0815 61.6398 83.3626 62.0413C83.647 62.4395 83.9966 62.6386 84.4115 62.6386C84.8264 62.6386 85.1744 62.4378 85.4554 62.0363C85.7398 61.6348 85.882 60.8318 85.882 59.6273C85.882 58.4161 85.7398 57.6115 85.4554 57.2133C85.1744 56.8151 84.823 56.6161 84.4015 56.6161C83.9866 56.6161 83.6554 56.7917 83.4078 57.143C83.0966 57.5914 82.941 58.4195 82.941 59.6273Z" fill="white"/>
<path d="M0.583292 2.81731H3.82038L4.98723 8.98283L6.68859 2.81731H9.91814L11.627 8.98283L12.7939 2.81731H16.0159L13.5843 13.8535H10.2419L8.30713 6.90507L6.37993 13.8535H3.03745L0.583292 2.81731ZM25.4035 10.6164H19.2605C19.3157 11.1083 19.4487 11.4746 19.6595 11.7155C19.9556 12.0618 20.3421 12.235 20.8188 12.235C21.12 12.235 21.406 12.1597 21.677 12.0091C21.8427 11.9138 22.0208 11.7456 22.2115 11.5047L25.2303 11.7833C24.7686 12.5863 24.2115 13.1634 23.5591 13.5148C22.9066 13.861 21.9706 14.0342 20.7511 14.0342C19.6921 14.0342 18.859 13.8861 18.2518 13.59C17.6445 13.2889 17.1401 12.8146 16.7386 12.1672C16.3421 11.5148 16.1439 10.7494 16.1439 9.87115C16.1439 8.62148 16.5429 7.61021 17.3409 6.83732C18.1439 6.06444 19.2505 5.67799 20.6607 5.67799C21.805 5.67799 22.7084 5.85114 23.3709 6.19743C24.0333 6.54372 24.5377 7.0456 24.884 7.70305C25.2303 8.36051 25.4035 9.2162 25.4035 10.2701V10.6164ZM22.2868 9.14845C22.2266 8.55624 22.066 8.13216 21.805 7.8762C21.5491 7.62024 21.2103 7.49227 20.7887 7.49227C20.3019 7.49227 19.913 7.68549 19.6219 8.07193C19.4362 8.31283 19.3182 8.67167 19.2681 9.14845H22.2868ZM26.9241 2.81731H29.9881V4.9026H26.9241V2.81731ZM26.9241 5.85867H29.9881V13.8535H26.9241V5.85867ZM37.5087 5.85867H40.3769V13.4094L40.3844 13.7632C40.3844 14.2651 40.2765 14.7418 40.0607 15.1935C39.8499 15.6502 39.5663 16.0191 39.21 16.3001C38.8587 16.5812 38.4095 16.7845 37.8625 16.9099C37.3204 17.0354 36.6981 17.0981 35.9955 17.0981C34.3895 17.0981 33.2854 16.8572 32.6831 16.3754C32.0859 15.8936 31.7873 15.2487 31.7873 14.4407C31.7873 14.3403 31.7923 14.2048 31.8023 14.0342L34.7759 14.373C34.8512 14.649 34.9667 14.8397 35.1222 14.9451C35.3481 15.1007 35.6316 15.1785 35.9729 15.1785C36.4146 15.1785 36.7433 15.0605 36.9591 14.8246C37.1799 14.5888 37.2903 14.1772 37.2903 13.59V12.378C36.9892 12.7343 36.6881 12.9928 36.387 13.1534C35.9152 13.4043 35.4058 13.5298 34.8588 13.5298C33.7898 13.5298 32.9265 13.0631 32.2691 12.1296C31.8023 11.4671 31.569 10.5913 31.569 9.50227C31.569 8.25762 31.8701 7.30908 32.4723 6.65665C33.0746 6.00421 33.8625 5.67799 34.8362 5.67799C35.4585 5.67799 35.9704 5.78339 36.3719 5.99417C36.7784 6.20496 37.1573 6.55376 37.5087 7.04058V5.85867ZM34.6254 9.73564C34.6254 10.3128 34.7483 10.7419 34.9943 11.0229C35.2402 11.299 35.5639 11.437 35.9654 11.437C36.3468 11.437 36.6655 11.294 36.9215 11.0079C37.1824 10.7168 37.3129 10.2802 37.3129 9.698C37.3129 9.11583 37.1774 8.67167 36.9064 8.36553C36.6354 8.05436 36.3042 7.89878 35.9127 7.89878C35.5212 7.89878 35.2076 8.04182 34.9717 8.32789C34.7408 8.60894 34.6254 9.07819 34.6254 9.73564ZM42.2288 2.81731H45.2927V6.88249C45.7093 6.45088 46.1233 6.14223 46.5349 5.95653C46.9464 5.77084 47.4332 5.67799 47.9953 5.67799C48.8284 5.67799 49.4834 5.93144 49.9601 6.43833C50.4419 6.94522 50.6828 7.72313 50.6828 8.77204V13.8535H47.6038V9.4571C47.6038 8.95523 47.511 8.60141 47.3253 8.39564C47.1396 8.18485 46.8786 8.07946 46.5424 8.07946C46.171 8.07946 45.8699 8.21998 45.639 8.50103C45.4081 8.78208 45.2927 9.28646 45.2927 10.0142V13.8535H42.2288V2.81731ZM56.2085 2.81731V5.85867H57.8948V8.09451H56.2085V10.9326C56.2085 11.2739 56.2411 11.4997 56.3063 11.6101C56.4067 11.7808 56.5824 11.8661 56.8333 11.8661C57.0591 11.8661 57.3753 11.8009 57.7818 11.6704L58.0077 13.7858C57.2499 13.9514 56.5422 14.0342 55.8848 14.0342C55.1219 14.0342 54.5598 13.9363 54.1985 13.7406C53.8371 13.5449 53.5686 13.2488 53.393 12.8523C53.2223 12.4508 53.137 11.8034 53.137 10.91V8.09451H52.0078V5.85867H53.137V4.39069L56.2085 2.81731ZM67.0715 2.62911H68.9837C68.3262 4.08454 67.8519 5.42957 67.5608 6.66417C67.3149 7.71309 67.192 8.83227 67.192 10.0217C67.192 12.3153 67.7892 14.6741 68.9837 17.0981H67.0715C66.0979 15.718 65.4128 14.4708 65.0164 13.3567C64.6249 12.2375 64.4292 11.0656 64.4292 9.84104C64.4292 8.57129 64.6349 7.36429 65.0465 6.22002C65.463 5.07574 66.138 3.87878 67.0715 2.62911ZM70.7227 2.81731H74.1329V11.1359H79.4553V13.8535H70.7227V2.81731ZM80.8178 2.81731H83.9119V6.64159C84.218 6.32039 84.5643 6.07949 84.9508 5.91889C85.3422 5.75829 85.7738 5.67799 86.2456 5.67799C87.2192 5.67799 88.0248 6.0293 88.6621 6.73193C89.2995 7.42953 89.6182 8.43328 89.6182 9.74317C89.6182 10.6164 89.4727 11.3868 89.1816 12.0543C88.8905 12.7168 88.4865 13.2136 87.9695 13.5449C87.4576 13.8711 86.888 14.0342 86.2607 14.0342C85.7237 14.0342 85.2318 13.9188 84.7852 13.6879C84.4489 13.5072 84.0825 13.1685 83.6861 12.6716V13.8535H80.8178V2.81731ZM83.8893 9.83351C83.8893 10.5211 84.0173 11.0204 84.2732 11.3316C84.5342 11.6377 84.8629 11.7908 85.2594 11.7908C85.6258 11.7908 85.9319 11.6403 86.1779 11.3391C86.4288 11.033 86.5543 10.5211 86.5543 9.80339C86.5543 9.17103 86.4313 8.7068 86.1854 8.4107C85.9445 8.11459 85.6509 7.96654 85.3046 7.96654C84.888 7.96654 84.5468 8.12212 84.2808 8.43328C84.0198 8.73942 83.8893 9.20617 83.8893 9.83351ZM90.5442 11.6403L93.5855 11.3542C93.711 11.7155 93.8866 11.974 94.1125 12.1296C94.3383 12.2852 94.6394 12.363 95.0159 12.363C95.4274 12.363 95.7461 12.2751 95.9719 12.0995C96.1476 11.969 96.2354 11.8059 96.2354 11.6101C96.2354 11.3893 96.12 11.2187 95.8891 11.0982C95.7235 11.0129 95.2844 10.9075 94.5717 10.782C93.5077 10.5964 92.7675 10.4257 92.3509 10.2701C91.9394 10.1095 91.5906 9.84104 91.3045 9.46463C91.0234 9.08822 90.8829 8.65912 90.8829 8.17732C90.8829 7.65036 91.036 7.19616 91.3421 6.81474C91.6483 6.43331 92.0699 6.14975 92.6069 5.96406C93.1439 5.77335 93.8641 5.67799 94.7674 5.67799C95.721 5.67799 96.4236 5.75076 96.8753 5.89631C97.332 6.04185 97.7109 6.26769 98.012 6.57384C98.3182 6.87998 98.5716 7.29403 98.7724 7.81597L95.8665 8.10204C95.7912 7.84609 95.6658 7.65788 95.4901 7.53743C95.2492 7.37684 94.9581 7.29654 94.6169 7.29654C94.2706 7.29654 94.0171 7.35927 93.8565 7.48474C93.7009 7.60519 93.6232 7.75324 93.6232 7.9289C93.6232 8.12463 93.7235 8.27268 93.9243 8.37305C94.125 8.47343 94.5617 8.56377 95.2342 8.64407C96.253 8.7595 97.0108 8.9201 97.5077 9.12587C98.0045 9.33163 98.3834 9.62523 98.6444 10.0067C98.9104 10.3881 99.0434 10.8071 99.0434 11.2638C99.0434 11.7256 98.9029 12.1747 98.6218 12.6114C98.3458 13.048 97.9066 13.3968 97.3044 13.6578C96.7072 13.9137 95.8916 14.0417 94.8578 14.0417C93.3973 14.0417 92.3559 13.8334 91.7336 13.4169C91.1163 13.0003 90.7198 12.4081 90.5442 11.6403ZM102.1 2.62911C103.033 3.87878 103.706 5.07574 104.117 6.22002C104.534 7.36429 104.742 8.57129 104.742 9.84104C104.742 11.0656 104.544 12.2375 104.147 13.3567C103.756 14.4708 103.073 15.718 102.1 17.0981H100.188C101.382 14.6741 101.979 12.3153 101.979 10.0217C101.979 8.83227 101.856 7.71309 101.61 6.66417C101.319 5.42957 100.845 4.08454 100.188 2.62911H102.1Z" fill="white"/>
<path d="M100.478 387.188L101.382 387.067C101.486 387.579 101.661 387.949 101.909 388.176C102.16 388.4 102.464 388.513 102.822 388.513C103.247 388.513 103.605 388.365 103.896 388.071C104.191 387.776 104.338 387.412 104.338 386.977C104.338 386.562 104.202 386.221 103.931 385.953C103.66 385.682 103.316 385.547 102.898 385.547C102.727 385.547 102.514 385.58 102.26 385.647L102.361 384.854C102.421 384.861 102.469 384.864 102.506 384.864C102.891 384.864 103.237 384.764 103.545 384.563C103.853 384.362 104.007 384.053 104.007 383.634C104.007 383.303 103.895 383.029 103.67 382.811C103.446 382.594 103.157 382.485 102.802 382.485C102.451 382.485 102.158 382.595 101.924 382.816C101.69 383.037 101.539 383.368 101.472 383.81L100.569 383.649C100.679 383.044 100.93 382.575 101.322 382.244C101.713 381.91 102.2 381.742 102.782 381.742C103.184 381.742 103.553 381.829 103.891 382.003C104.229 382.174 104.487 382.408 104.664 382.706C104.845 383.004 104.935 383.32 104.935 383.654C104.935 383.972 104.85 384.262 104.679 384.523C104.509 384.784 104.256 384.991 103.921 385.145C104.356 385.245 104.694 385.454 104.935 385.772C105.176 386.087 105.296 386.482 105.296 386.957C105.296 387.599 105.062 388.145 104.594 388.593C104.125 389.038 103.533 389.26 102.817 389.26C102.171 389.26 101.634 389.068 101.206 388.683C100.781 388.298 100.539 387.8 100.478 387.188ZM109.598 389.13H108.694V383.373C108.477 383.581 108.191 383.788 107.836 383.996C107.485 384.203 107.168 384.359 106.887 384.462V383.589C107.393 383.352 107.834 383.064 108.212 382.726C108.59 382.388 108.858 382.06 109.015 381.742H109.598V389.13Z" fill="white"/>
<path d="M144.576 385.501C144.576 384.631 144.665 383.932 144.842 383.404C145.023 382.872 145.289 382.462 145.64 382.174C145.995 381.886 146.44 381.742 146.975 381.742C147.37 381.742 147.716 381.823 148.014 381.983C148.312 382.14 148.558 382.37 148.752 382.671C148.946 382.969 149.098 383.333 149.208 383.765C149.319 384.193 149.374 384.772 149.374 385.501C149.374 386.365 149.285 387.062 149.108 387.594C148.931 388.123 148.665 388.533 148.31 388.824C147.959 389.111 147.514 389.255 146.975 389.255C146.266 389.255 145.709 389.001 145.304 388.493C144.819 387.88 144.576 386.883 144.576 385.501ZM145.504 385.501C145.504 386.709 145.645 387.514 145.926 387.915C146.21 388.314 146.56 388.513 146.975 388.513C147.39 388.513 147.738 388.312 148.019 387.91C148.303 387.509 148.445 386.706 148.445 385.501C148.445 384.29 148.303 383.485 148.019 383.087C147.738 382.689 147.386 382.49 146.965 382.49C146.55 382.49 146.219 382.666 145.971 383.017C145.66 383.465 145.504 384.293 145.504 385.501ZM155.045 388.262V389.13H150.182C150.175 388.912 150.21 388.703 150.287 388.503C150.411 388.171 150.609 387.845 150.88 387.524C151.154 387.203 151.549 386.831 152.064 386.41C152.864 385.754 153.404 385.235 153.685 384.854C153.966 384.469 154.107 384.106 154.107 383.765C154.107 383.407 153.978 383.106 153.72 382.861C153.466 382.614 153.133 382.49 152.721 382.49C152.286 382.49 151.938 382.621 151.678 382.882C151.417 383.143 151.284 383.504 151.281 383.966L150.353 383.87C150.416 383.178 150.655 382.651 151.07 382.289C151.485 381.925 152.042 381.742 152.741 381.742C153.447 381.742 154.006 381.938 154.418 382.329C154.829 382.721 155.035 383.206 155.035 383.785C155.035 384.079 154.975 384.369 154.854 384.653C154.734 384.938 154.533 385.237 154.252 385.552C153.974 385.866 153.511 386.298 152.862 386.846C152.32 387.301 151.972 387.611 151.818 387.775C151.664 387.935 151.537 388.098 151.437 388.262H155.045Z" fill="white"/>
<path d="M188.67 385.501C188.67 384.631 188.759 383.932 188.936 383.404C189.117 382.872 189.383 382.462 189.734 382.174C190.089 381.886 190.534 381.742 191.069 381.742C191.464 381.742 191.81 381.823 192.108 381.983C192.406 382.14 192.652 382.37 192.846 382.671C193.04 382.969 193.192 383.333 193.303 383.765C193.413 384.193 193.468 384.772 193.468 385.501C193.468 386.365 193.379 387.062 193.202 387.594C193.025 388.123 192.759 388.533 192.404 388.824C192.053 389.111 191.608 389.255 191.069 389.255C190.36 389.255 189.803 389.001 189.398 388.493C188.913 387.88 188.67 386.883 188.67 385.501ZM189.599 385.501C189.599 386.709 189.739 387.514 190.02 387.915C190.305 388.314 190.654 388.513 191.069 388.513C191.484 388.513 191.832 388.312 192.113 387.91C192.397 387.509 192.54 386.706 192.54 385.501C192.54 384.29 192.397 383.485 192.113 383.087C191.832 382.689 191.481 382.49 191.059 382.49C190.644 382.49 190.313 382.666 190.065 383.017C189.754 383.465 189.599 384.293 189.599 385.501ZM197.287 389.13V387.368H194.095V386.54L197.453 381.772H198.191V386.54H199.184V387.368H198.191V389.13H197.287ZM197.287 386.54V383.223L194.984 386.54H197.287Z" fill="white"/>
<path d="M232.773 385.501C232.773 384.631 232.862 383.932 233.039 383.404C233.22 382.872 233.486 382.462 233.837 382.174C234.192 381.886 234.637 381.742 235.172 381.742C235.567 381.742 235.913 381.823 236.211 381.983C236.509 382.14 236.755 382.37 236.949 382.671C237.143 382.969 237.295 383.333 237.406 383.765C237.516 384.193 237.571 384.772 237.571 385.501C237.571 386.365 237.483 387.062 237.305 387.594C237.128 388.123 236.862 388.533 236.507 388.824C236.156 389.111 235.711 389.255 235.172 389.255C234.463 389.255 233.906 389.001 233.501 388.493C233.016 387.88 232.773 386.883 232.773 385.501ZM233.702 385.501C233.702 386.709 233.842 387.514 234.123 387.915C234.408 388.314 234.757 388.513 235.172 388.513C235.587 388.513 235.935 388.312 236.216 387.91C236.501 387.509 236.643 386.706 236.643 385.501C236.643 384.29 236.501 383.485 236.216 383.087C235.935 382.689 235.584 382.49 235.162 382.49C234.747 382.49 234.416 382.666 234.168 383.017C233.857 383.465 233.702 384.293 233.702 385.501ZM243.182 383.574L242.284 383.644C242.203 383.29 242.09 383.032 241.943 382.872C241.698 382.614 241.397 382.485 241.039 382.485C240.751 382.485 240.499 382.565 240.281 382.726C239.997 382.933 239.773 383.236 239.609 383.634C239.445 384.033 239.36 384.6 239.353 385.336C239.57 385.004 239.836 384.759 240.151 384.598C240.465 384.437 240.795 384.357 241.14 384.357C241.742 384.357 242.254 384.58 242.675 385.025C243.1 385.466 243.313 386.038 243.313 386.741C243.313 387.203 243.212 387.633 243.011 388.031C242.814 388.426 242.541 388.728 242.193 388.939C241.845 389.15 241.451 389.255 241.009 389.255C240.256 389.255 239.642 388.979 239.167 388.427C238.692 387.872 238.454 386.958 238.454 385.687C238.454 384.265 238.717 383.231 239.242 382.585C239.701 382.023 240.318 381.742 241.094 381.742C241.673 381.742 242.147 381.905 242.515 382.229C242.886 382.554 243.109 383.002 243.182 383.574ZM239.493 386.746C239.493 387.057 239.559 387.355 239.689 387.639C239.823 387.924 240.009 388.141 240.246 388.292C240.484 388.439 240.733 388.513 240.994 388.513C241.375 388.513 241.703 388.359 241.978 388.051C242.252 387.743 242.389 387.325 242.389 386.796C242.389 386.288 242.254 385.888 241.983 385.597C241.712 385.302 241.37 385.155 240.959 385.155C240.551 385.155 240.204 385.302 239.92 385.597C239.636 385.888 239.493 386.271 239.493 386.746Z" fill="white"/>
<path d="M276.868 385.501C276.868 384.631 276.957 383.932 277.134 383.404C277.315 382.872 277.581 382.462 277.932 382.174C278.287 381.886 278.732 381.742 279.267 381.742C279.662 381.742 280.008 381.823 280.306 381.983C280.604 382.14 280.85 382.37 281.044 382.671C281.238 382.969 281.39 383.333 281.5 383.765C281.611 384.193 281.666 384.772 281.666 385.501C281.666 386.365 281.577 387.062 281.4 387.594C281.223 388.123 280.957 388.533 280.602 388.824C280.251 389.111 279.806 389.255 279.267 389.255C278.558 389.255 278.001 389.001 277.596 388.493C277.111 387.88 276.868 386.883 276.868 385.501ZM277.796 385.501C277.796 386.709 277.937 387.514 278.218 387.915C278.502 388.314 278.852 388.513 279.267 388.513C279.682 388.513 280.03 388.312 280.311 387.91C280.595 387.509 280.737 386.706 280.737 385.501C280.737 384.29 280.595 383.485 280.311 383.087C280.03 382.689 279.678 382.49 279.257 382.49C278.842 382.49 278.511 382.666 278.263 383.017C277.952 383.465 277.796 384.293 277.796 385.501ZM283.98 385.14C283.605 385.003 283.327 384.807 283.146 384.553C282.966 384.299 282.875 383.994 282.875 383.639C282.875 383.104 283.068 382.654 283.453 382.289C283.837 381.925 284.349 381.742 284.988 381.742C285.631 381.742 286.148 381.93 286.539 382.304C286.931 382.676 287.126 383.129 287.126 383.664C287.126 384.006 287.036 384.304 286.855 384.558C286.678 384.809 286.407 385.003 286.042 385.14C286.494 385.287 286.837 385.525 287.071 385.853C287.309 386.181 287.427 386.572 287.427 387.027C287.427 387.656 287.205 388.185 286.76 388.613C286.315 389.041 285.729 389.255 285.003 389.255C284.277 389.255 283.692 389.041 283.247 388.613C282.802 388.181 282.579 387.644 282.579 387.002C282.579 386.523 282.7 386.124 282.941 385.802C283.185 385.478 283.531 385.257 283.98 385.14ZM283.799 383.609C283.799 383.957 283.911 384.242 284.135 384.462C284.359 384.683 284.65 384.794 285.008 384.794C285.356 384.794 285.641 384.685 285.862 384.467C286.086 384.247 286.198 383.977 286.198 383.659C286.198 383.328 286.082 383.051 285.852 382.826C285.624 382.599 285.34 382.485 284.998 382.485C284.654 382.485 284.368 382.595 284.14 382.816C283.913 383.037 283.799 383.301 283.799 383.609ZM283.508 387.007C283.508 387.265 283.568 387.514 283.688 387.755C283.812 387.996 283.995 388.183 284.236 388.317C284.476 388.447 284.736 388.513 285.013 388.513C285.445 388.513 285.801 388.374 286.082 388.096C286.363 387.818 286.504 387.465 286.504 387.037C286.504 386.602 286.358 386.242 286.067 385.958C285.78 385.674 285.418 385.531 284.983 385.531C284.558 385.531 284.205 385.672 283.924 385.953C283.647 386.234 283.508 386.585 283.508 387.007Z" fill="white"/>
<path d="M324.374 389.13H323.47V383.373C323.253 383.581 322.967 383.788 322.612 383.996C322.261 384.203 321.945 384.359 321.664 384.462V383.589C322.169 383.352 322.61 383.064 322.989 382.726C323.367 382.388 323.634 382.06 323.792 381.742H324.374V389.13ZM326.692 385.501C326.692 384.631 326.781 383.932 326.958 383.404C327.139 382.872 327.405 382.462 327.756 382.174C328.111 381.886 328.556 381.742 329.091 381.742C329.486 381.742 329.832 381.823 330.13 381.983C330.428 382.14 330.674 382.37 330.868 382.671C331.062 382.969 331.214 383.333 331.325 383.765C331.435 384.193 331.49 384.772 331.49 385.501C331.49 386.365 331.402 387.062 331.224 387.594C331.047 388.123 330.781 388.533 330.426 388.824C330.075 389.111 329.63 389.255 329.091 389.255C328.382 389.255 327.825 389.001 327.42 388.493C326.935 387.88 326.692 386.883 326.692 385.501ZM327.621 385.501C327.621 386.709 327.761 387.514 328.042 387.915C328.327 388.314 328.676 388.513 329.091 388.513C329.506 388.513 329.854 388.312 330.135 387.91C330.42 387.509 330.562 386.706 330.562 385.501C330.562 384.29 330.42 383.485 330.135 383.087C329.854 382.689 329.503 382.49 329.081 382.49C328.666 382.49 328.335 382.666 328.088 383.017C327.776 383.465 327.621 384.293 327.621 385.501Z" fill="white"/>
<path d="M368.467 389.13H367.564V383.373C367.347 383.581 367.061 383.788 366.706 383.996C366.355 384.203 366.038 384.359 365.757 384.462V383.589C366.263 383.352 366.704 383.064 367.082 382.726C367.46 382.388 367.728 382.06 367.885 381.742H368.467V389.13ZM375.534 388.262V389.13H370.671C370.664 388.912 370.699 388.703 370.776 388.503C370.9 388.171 371.097 387.845 371.368 387.524C371.643 387.203 372.037 386.831 372.553 386.41C373.352 385.754 373.893 385.235 374.174 384.854C374.455 384.469 374.595 384.106 374.595 383.765C374.595 383.407 374.467 383.106 374.209 382.861C373.955 382.614 373.622 382.49 373.21 382.49C372.775 382.49 372.427 382.621 372.166 382.882C371.905 383.143 371.773 383.504 371.77 383.966L370.841 383.87C370.905 383.178 371.144 382.651 371.559 382.289C371.974 381.925 372.531 381.742 373.23 381.742C373.936 381.742 374.495 381.938 374.907 382.329C375.318 382.721 375.524 383.206 375.524 383.785C375.524 384.079 375.464 384.369 375.343 384.653C375.223 384.938 375.022 385.237 374.741 385.552C374.463 385.866 374 386.298 373.351 386.846C372.809 387.301 372.461 387.611 372.307 387.775C372.153 387.935 372.026 388.098 371.925 388.262H375.534Z" fill="white"/>
<path d="M412.571 389.13H411.667V383.373C411.45 383.581 411.164 383.788 410.809 383.996C410.458 384.203 410.141 384.359 409.86 384.462V383.589C410.366 383.352 410.807 383.064 411.185 382.726C411.563 382.388 411.831 382.06 411.988 381.742H412.571V389.13ZM417.785 389.13V387.368H414.593V386.54L417.951 381.772H418.688V386.54H419.682V387.368H418.688V389.13H417.785ZM417.785 386.54V383.223L415.481 386.54H417.785Z" fill="white"/>
<path d="M456.664 389.13H455.761V383.373C455.543 383.581 455.257 383.788 454.903 383.996C454.551 384.203 454.235 384.359 453.954 384.462V383.589C454.459 383.352 454.901 383.064 455.279 382.726C455.657 382.388 455.925 382.06 456.082 381.742H456.664V389.13ZM463.67 383.574L462.772 383.644C462.692 383.29 462.578 383.032 462.431 382.872C462.187 382.614 461.885 382.485 461.527 382.485C461.24 382.485 460.987 382.565 460.77 382.726C460.485 382.933 460.261 383.236 460.097 383.634C459.933 384.033 459.848 384.6 459.841 385.336C460.059 385.004 460.325 384.759 460.639 384.598C460.954 384.437 461.283 384.357 461.628 384.357C462.23 384.357 462.742 384.58 463.164 385.025C463.588 385.466 463.801 386.038 463.801 386.741C463.801 387.203 463.701 387.633 463.5 388.031C463.302 388.426 463.03 388.728 462.682 388.939C462.334 389.15 461.939 389.255 461.497 389.255C460.744 389.255 460.131 388.979 459.655 388.427C459.18 387.872 458.943 386.958 458.943 385.687C458.943 384.265 459.205 383.231 459.731 382.585C460.189 382.023 460.806 381.742 461.583 381.742C462.161 381.742 462.635 381.905 463.003 382.229C463.374 382.554 463.597 383.002 463.67 383.574ZM459.982 386.746C459.982 387.057 460.047 387.355 460.177 387.639C460.311 387.924 460.497 388.141 460.734 388.292C460.972 388.439 461.221 388.513 461.482 388.513C461.864 388.513 462.192 388.359 462.466 388.051C462.74 387.743 462.877 387.325 462.877 386.796C462.877 386.288 462.742 385.888 462.471 385.597C462.2 385.302 461.859 385.155 461.447 385.155C461.039 385.155 460.693 385.302 460.408 385.597C460.124 385.888 459.982 386.271 459.982 386.746Z" fill="white"/>
<path d="M500.767 389.13H499.863V383.373C499.646 383.581 499.36 383.788 499.005 383.996C498.654 384.203 498.338 384.359 498.057 384.462V383.589C498.562 383.352 499.004 383.064 499.382 382.726C499.76 382.388 500.027 382.06 500.185 381.742H500.767V389.13ZM504.476 385.14C504.101 385.003 503.823 384.807 503.643 384.553C503.462 384.299 503.372 383.994 503.372 383.639C503.372 383.104 503.564 382.654 503.949 382.289C504.333 381.925 504.845 381.742 505.484 381.742C506.127 381.742 506.644 381.93 507.035 382.304C507.427 382.676 507.622 383.129 507.622 383.664C507.622 384.006 507.532 384.304 507.351 384.558C507.174 384.809 506.903 385.003 506.538 385.14C506.99 385.287 507.333 385.525 507.567 385.853C507.805 386.181 507.924 386.572 507.924 387.027C507.924 387.656 507.701 388.185 507.256 388.613C506.811 389.041 506.226 389.255 505.499 389.255C504.773 389.255 504.188 389.041 503.743 388.613C503.298 388.181 503.075 387.644 503.075 387.002C503.075 386.523 503.196 386.124 503.437 385.802C503.681 385.478 504.027 385.257 504.476 385.14ZM504.295 383.609C504.295 383.957 504.407 384.242 504.631 384.462C504.855 384.683 505.146 384.794 505.504 384.794C505.852 384.794 506.137 384.685 506.358 384.467C506.582 384.247 506.694 383.977 506.694 383.659C506.694 383.328 506.578 383.051 506.348 382.826C506.12 382.599 505.836 382.485 505.494 382.485C505.15 382.485 504.864 382.595 504.636 382.816C504.409 383.037 504.295 383.301 504.295 383.609ZM504.004 387.007C504.004 387.265 504.064 387.514 504.185 387.755C504.308 387.996 504.491 388.183 504.732 388.317C504.972 388.447 505.232 388.513 505.51 388.513C505.941 388.513 506.297 388.374 506.578 388.096C506.86 387.818 507 387.465 507 387.037C507 386.602 506.855 386.242 506.563 385.958C506.276 385.674 505.914 385.531 505.479 385.531C505.054 385.531 504.701 385.672 504.42 385.953C504.143 386.234 504.004 386.585 504.004 387.007Z" fill="white"/>
<path d="M546.206 388.262V389.13H541.342C541.336 388.912 541.371 388.703 541.448 388.503C541.572 388.171 541.769 387.845 542.04 387.524C542.314 387.203 542.709 386.831 543.224 386.41C544.024 385.754 544.564 385.235 544.845 384.854C545.127 384.469 545.267 384.106 545.267 383.765C545.267 383.407 545.138 383.106 544.881 382.861C544.626 382.614 544.293 382.49 543.882 382.49C543.447 382.49 543.099 382.621 542.838 382.882C542.577 383.143 542.445 383.504 542.442 383.966L541.513 383.87C541.577 383.178 541.816 382.651 542.231 382.289C542.646 381.925 543.203 381.742 543.902 381.742C544.608 381.742 545.167 381.938 545.578 382.329C545.99 382.721 546.196 383.206 546.196 383.785C546.196 384.079 546.135 384.369 546.015 384.653C545.894 384.938 545.694 385.237 545.413 385.552C545.135 385.866 544.672 386.298 544.022 386.846C543.48 387.301 543.132 387.611 542.979 387.775C542.825 387.935 542.697 388.098 542.597 388.262H546.206ZM547.179 385.501C547.179 384.631 547.268 383.932 547.445 383.404C547.626 382.872 547.892 382.462 548.243 382.174C548.598 381.886 549.043 381.742 549.578 381.742C549.973 381.742 550.319 381.823 550.617 381.983C550.915 382.14 551.161 382.37 551.355 382.671C551.549 382.969 551.701 383.333 551.811 383.765C551.922 384.193 551.977 384.772 551.977 385.501C551.977 386.365 551.888 387.062 551.711 387.594C551.534 388.123 551.268 388.533 550.913 388.824C550.562 389.111 550.117 389.255 549.578 389.255C548.869 389.255 548.312 389.001 547.907 388.493C547.422 387.88 547.179 386.883 547.179 385.501ZM548.108 385.501C548.108 386.709 548.248 387.514 548.529 387.915C548.814 388.314 549.163 388.513 549.578 388.513C549.993 388.513 550.341 388.312 550.622 387.91C550.906 387.509 551.049 386.706 551.049 385.501C551.049 384.29 550.906 383.485 550.622 383.087C550.341 382.689 549.99 382.49 549.568 382.49C549.153 382.49 548.822 382.666 548.574 383.017C548.263 383.465 548.108 384.293 548.108 385.501Z" fill="white"/>
<path d="M590.309 388.262V389.13H585.446C585.439 388.912 585.474 388.703 585.551 388.503C585.675 388.171 585.873 387.845 586.144 387.524C586.418 387.203 586.813 386.831 587.328 386.41C588.128 385.754 588.668 385.235 588.949 384.854C589.23 384.469 589.371 384.106 589.371 383.765C589.371 383.407 589.242 383.106 588.984 382.861C588.73 382.614 588.397 382.49 587.985 382.49C587.55 382.49 587.202 382.621 586.942 382.882C586.681 383.143 586.548 383.504 586.545 383.966L585.617 383.87C585.68 383.178 585.919 382.651 586.334 382.289C586.749 381.925 587.306 381.742 588.005 381.742C588.711 381.742 589.27 381.938 589.682 382.329C590.093 382.721 590.299 383.206 590.299 383.785C590.299 384.079 590.239 384.369 590.118 384.653C589.998 384.938 589.797 385.237 589.516 385.552C589.238 385.866 588.775 386.298 588.126 386.846C587.584 387.301 587.236 387.611 587.082 387.775C586.928 387.935 586.801 388.098 586.701 388.262H590.309ZM596.03 388.262V389.13H591.167C591.161 388.912 591.196 388.703 591.273 388.503C591.396 388.171 591.594 387.845 591.865 387.524C592.139 387.203 592.534 386.831 593.049 386.41C593.849 385.754 594.389 385.235 594.67 384.854C594.951 384.469 595.092 384.106 595.092 383.765C595.092 383.407 594.963 383.106 594.705 382.861C594.451 382.614 594.118 382.49 593.707 382.49C593.272 382.49 592.924 382.621 592.663 382.882C592.402 383.143 592.27 383.504 592.266 383.966L591.338 383.87C591.401 383.178 591.641 382.651 592.056 382.289C592.47 381.925 593.028 381.742 593.727 381.742C594.433 381.742 594.992 381.938 595.403 382.329C595.815 382.721 596.02 383.206 596.02 383.785C596.02 384.079 595.96 384.369 595.84 384.653C595.719 384.938 595.519 385.237 595.237 385.552C594.96 385.866 594.496 386.298 593.847 386.846C593.305 387.301 592.957 387.611 592.803 387.775C592.649 387.935 592.522 388.098 592.422 388.262H596.03Z" fill="white"/>
<path d="M634.402 388.262V389.13H629.539C629.532 388.912 629.567 388.703 629.644 388.503C629.768 388.171 629.965 387.845 630.236 387.524C630.511 387.203 630.905 386.831 631.421 386.41C632.22 385.754 632.761 385.235 633.042 384.854C633.323 384.469 633.463 384.106 633.463 383.765C633.463 383.407 633.335 383.106 633.077 382.861C632.823 382.614 632.49 382.49 632.078 382.49C631.643 382.49 631.295 382.621 631.034 382.882C630.773 383.143 630.641 383.504 630.638 383.966L629.709 383.87C629.773 383.178 630.012 382.651 630.427 382.289C630.842 381.925 631.399 381.742 632.098 381.742C632.804 381.742 633.363 381.938 633.775 382.329C634.186 382.721 634.392 383.206 634.392 383.785C634.392 384.079 634.332 384.369 634.211 384.653C634.091 384.938 633.89 385.237 633.609 385.552C633.331 385.866 632.868 386.298 632.219 386.846C631.677 387.301 631.329 387.611 631.175 387.775C631.021 387.935 630.894 388.098 630.793 388.262H634.402ZM638.271 389.13V387.368H635.079V386.54L638.437 381.772H639.175V386.54H640.168V387.368H639.175V389.13H638.271ZM638.271 386.54V383.223L635.968 386.54H638.271Z" fill="white"/>
<path d="M678.497 388.262V389.13H673.634C673.627 388.912 673.662 388.703 673.739 388.503C673.863 388.171 674.061 387.845 674.332 387.524C674.606 387.203 675.001 386.831 675.516 386.41C676.316 385.754 676.856 385.235 677.137 384.854C677.418 384.469 677.559 384.106 677.559 383.765C677.559 383.407 677.43 383.106 677.172 382.861C676.918 382.614 676.585 382.49 676.173 382.49C675.738 382.49 675.39 382.621 675.129 382.882C674.869 383.143 674.736 383.504 674.733 383.966L673.805 383.87C673.868 383.178 674.107 382.651 674.522 382.289C674.937 381.925 675.494 381.742 676.193 381.742C676.899 381.742 677.458 381.938 677.87 382.329C678.281 382.721 678.487 383.206 678.487 383.785C678.487 384.079 678.427 384.369 678.306 384.653C678.186 384.938 677.985 385.237 677.704 385.552C677.426 385.866 676.963 386.298 676.314 386.846C675.772 387.301 675.424 387.611 675.27 387.775C675.116 387.935 674.989 388.098 674.889 388.262H678.497ZM684.158 383.574L683.26 383.644C683.18 383.29 683.066 383.032 682.919 382.872C682.674 382.614 682.373 382.485 682.015 382.485C681.727 382.485 681.475 382.565 681.257 382.726C680.973 382.933 680.749 383.236 680.585 383.634C680.421 384.033 680.336 384.6 680.329 385.336C680.546 385.004 680.812 384.759 681.127 384.598C681.441 384.437 681.771 384.357 682.116 384.357C682.718 384.357 683.23 384.58 683.651 385.025C684.076 385.466 684.289 386.038 684.289 386.741C684.289 387.203 684.188 387.633 683.988 388.031C683.79 388.426 683.517 388.728 683.17 388.939C682.822 389.15 682.427 389.255 681.985 389.255C681.232 389.255 680.618 388.979 680.143 388.427C679.668 387.872 679.431 386.958 679.431 385.687C679.431 384.265 679.693 383.231 680.218 382.585C680.677 382.023 681.294 381.742 682.07 381.742C682.649 381.742 683.123 381.905 683.491 382.229C683.862 382.554 684.085 383.002 684.158 383.574ZM680.469 386.746C680.469 387.057 680.535 387.355 680.665 387.639C680.799 387.924 680.985 388.141 681.222 388.292C681.46 388.439 681.709 388.513 681.97 388.513C682.351 388.513 682.679 388.359 682.954 388.051C683.228 387.743 683.365 387.325 683.365 386.796C683.365 386.288 683.23 385.888 682.959 385.597C682.688 385.302 682.346 385.155 681.935 385.155C681.527 385.155 681.18 385.302 680.896 385.597C680.612 385.888 680.469 386.271 680.469 386.746Z" fill="white"/>
<path d="M722.6 388.262V389.13H717.737C717.73 388.912 717.765 388.703 717.842 388.503C717.966 388.171 718.164 387.845 718.435 387.524C718.709 387.203 719.104 386.831 719.619 386.41C720.419 385.754 720.959 385.235 721.24 384.854C721.521 384.469 721.662 384.106 721.662 383.765C721.662 383.407 721.533 383.106 721.275 382.861C721.021 382.614 720.688 382.49 720.276 382.49C719.841 382.49 719.494 382.621 719.233 382.882C718.972 383.143 718.839 383.504 718.836 383.966L717.908 383.87C717.971 383.178 718.21 382.651 718.625 382.289C719.04 381.925 719.597 381.742 720.296 381.742C721.002 381.742 721.561 381.938 721.973 382.329C722.384 382.721 722.59 383.206 722.59 383.785C722.59 384.079 722.53 384.369 722.409 384.653C722.289 384.938 722.088 385.237 721.807 385.552C721.529 385.866 721.066 386.298 720.417 386.846C719.875 387.301 719.527 387.611 719.373 387.775C719.219 387.935 719.092 388.098 718.992 388.262H722.6ZM724.964 385.14C724.589 385.003 724.311 384.807 724.131 384.553C723.95 384.299 723.86 383.994 723.86 383.639C723.86 383.104 724.052 382.654 724.437 382.289C724.822 381.925 725.334 381.742 725.973 381.742C726.615 381.742 727.132 381.93 727.523 382.304C727.915 382.676 728.111 383.129 728.111 383.664C728.111 384.006 728.02 384.304 727.84 384.558C727.662 384.809 727.391 385.003 727.027 385.14C727.478 385.287 727.821 385.525 728.055 385.853C728.293 386.181 728.412 386.572 728.412 387.027C728.412 387.656 728.189 388.185 727.744 388.613C727.299 389.041 726.714 389.255 725.988 389.255C725.262 389.255 724.676 389.041 724.231 388.613C723.786 388.181 723.564 387.644 723.564 387.002C723.564 386.523 723.684 386.124 723.925 385.802C724.169 385.478 724.516 385.257 724.964 385.14ZM724.783 383.609C724.783 383.957 724.895 384.242 725.12 384.462C725.344 384.683 725.635 384.794 725.993 384.794C726.341 384.794 726.625 384.685 726.846 384.467C727.07 384.247 727.182 383.977 727.182 383.659C727.182 383.328 727.067 383.051 726.836 382.826C726.608 382.599 726.324 382.485 725.983 382.485C725.638 382.485 725.352 382.595 725.125 382.816C724.897 383.037 724.783 383.301 724.783 383.609ZM724.492 387.007C724.492 387.265 724.552 387.514 724.673 387.755C724.797 387.996 724.979 388.183 725.22 388.317C725.461 388.447 725.72 388.513 725.998 388.513C726.429 388.513 726.786 388.374 727.067 388.096C727.348 387.818 727.488 387.465 727.488 387.037C727.488 386.602 727.343 386.242 727.052 385.958C726.764 385.674 726.403 385.531 725.968 385.531C725.543 385.531 725.19 385.672 724.909 385.953C724.631 386.234 724.492 386.585 724.492 387.007Z" fill="white"/>
<path d="M761.951 387.188L762.855 387.067C762.958 387.579 763.134 387.949 763.381 388.176C763.632 388.4 763.937 388.513 764.295 388.513C764.72 388.513 765.078 388.365 765.369 388.071C765.663 387.776 765.811 387.412 765.811 386.977C765.811 386.562 765.675 386.221 765.404 385.953C765.133 385.682 764.788 385.547 764.37 385.547C764.2 385.547 763.987 385.58 763.733 385.647L763.833 384.854C763.893 384.861 763.942 384.864 763.979 384.864C764.363 384.864 764.71 384.764 765.018 384.563C765.325 384.362 765.479 384.053 765.479 383.634C765.479 383.303 765.367 383.029 765.143 382.811C764.919 382.594 764.629 382.485 764.275 382.485C763.924 382.485 763.631 382.595 763.397 382.816C763.162 383.037 763.012 383.368 762.945 383.81L762.041 383.649C762.152 383.044 762.403 382.575 762.794 382.244C763.186 381.91 763.673 381.742 764.255 381.742C764.656 381.742 765.026 381.829 765.364 382.003C765.702 382.174 765.959 382.408 766.137 382.706C766.317 383.004 766.408 383.32 766.408 383.654C766.408 383.972 766.322 384.262 766.152 384.523C765.981 384.784 765.729 384.991 765.394 385.145C765.829 385.245 766.167 385.454 766.408 385.772C766.649 386.087 766.769 386.482 766.769 386.957C766.769 387.599 766.535 388.145 766.067 388.593C765.598 389.038 765.006 389.26 764.29 389.26C763.644 389.26 763.107 389.068 762.679 388.683C762.254 388.298 762.011 387.8 761.951 387.188ZM767.667 385.501C767.667 384.631 767.756 383.932 767.933 383.404C768.114 382.872 768.38 382.462 768.731 382.174C769.086 381.886 769.531 381.742 770.066 381.742C770.461 381.742 770.808 381.823 771.105 381.983C771.403 382.14 771.649 382.37 771.843 382.671C772.037 382.969 772.189 383.333 772.3 383.765C772.41 384.193 772.465 384.772 772.465 385.501C772.465 386.365 772.377 387.062 772.199 387.594C772.022 388.123 771.756 388.533 771.401 388.824C771.05 389.111 770.605 389.255 770.066 389.255C769.357 389.255 768.8 389.001 768.395 388.493C767.91 387.88 767.667 386.883 767.667 385.501ZM768.596 385.501C768.596 386.709 768.736 387.514 769.018 387.915C769.302 388.314 769.652 388.513 770.066 388.513C770.481 388.513 770.829 388.312 771.11 387.91C771.395 387.509 771.537 386.706 771.537 385.501C771.537 384.29 771.395 383.485 771.11 383.087C770.829 382.689 770.478 382.49 770.056 382.49C769.642 382.49 769.31 382.666 769.063 383.017C768.752 383.465 768.596 384.293 768.596 385.501Z" fill="white"/>
<path d="M316.207 415.941C316.145 415.121 315.785 414.473 315.129 413.996C314.473 413.512 313.617 413.27 312.562 413.27C311.648 413.27 310.934 413.473 310.418 413.879C309.902 414.277 309.645 414.836 309.645 415.555C309.645 416.07 309.914 416.469 310.453 416.75C310.984 417.031 312.113 417.363 313.84 417.746C316.348 418.309 318.023 418.957 318.867 419.691C319.711 420.418 320.133 421.586 320.133 423.195C320.133 424.812 319.496 426.098 318.223 427.051C316.949 427.996 315.227 428.469 313.055 428.469C310.875 428.469 309.172 427.965 307.945 426.957C306.719 425.949 306.062 424.516 305.977 422.656H309.445C309.484 423.57 309.816 424.273 310.441 424.766C311.066 425.258 311.938 425.504 313.055 425.504C314.203 425.504 315.098 425.32 315.738 424.953C316.387 424.578 316.711 424.062 316.711 423.406C316.711 422.758 316.48 422.281 316.02 421.977C315.566 421.672 314.598 421.355 313.113 421.027C310.379 420.418 308.551 419.758 307.629 419.047C306.715 418.344 306.258 417.246 306.258 415.754C306.258 414.082 306.863 412.758 308.074 411.781C309.285 410.797 310.922 410.305 312.984 410.305C314.914 410.305 316.484 410.812 317.695 411.828C318.906 412.844 319.578 414.215 319.711 415.941H316.207ZM327.656 428.328C325.719 428.328 324.223 427.73 323.168 426.535C322.121 425.34 321.598 423.637 321.598 421.426C321.598 419.387 322.133 417.793 323.203 416.645C324.273 415.488 325.758 414.91 327.656 414.91C329.602 414.91 331.098 415.5 332.145 416.68C333.199 417.852 333.727 419.523 333.727 421.695C333.742 421.945 333.723 422.199 333.668 422.457H324.984C325.062 423.465 325.285 424.219 325.652 424.719C326.121 425.344 326.902 425.656 327.996 425.656C328.504 425.656 328.973 425.512 329.402 425.223C329.84 424.934 330.102 424.586 330.188 424.18H333.609C333.32 425.477 332.648 426.492 331.594 427.227C330.547 427.961 329.234 428.328 327.656 428.328ZM330.223 420.312C330.145 419.547 329.941 418.949 329.613 418.52C329.184 417.949 328.516 417.664 327.609 417.664C326.742 417.664 326.082 417.996 325.629 418.66C325.348 419.082 325.145 419.633 325.02 420.312H330.223ZM335.895 415.25H337.488H339.094V417.137L339.316 416.82C340.223 415.547 341.418 414.91 342.902 414.91C344.52 414.91 345.816 415.508 346.793 416.703C347.777 417.898 348.27 419.473 348.27 421.426C348.27 423.496 347.777 425.164 346.793 426.43C345.816 427.695 344.52 428.328 342.902 428.328C341.426 428.328 340.234 427.734 339.328 426.547L339.258 426.453V432.992H337.582H335.895V415.25ZM341.941 425.562C342.84 425.562 343.543 425.227 344.051 424.555C344.559 423.875 344.812 422.934 344.812 421.73C344.812 420.504 344.559 419.547 344.051 418.859C343.551 418.164 342.852 417.816 341.953 417.816C341.055 417.816 340.352 418.172 339.844 418.883C339.344 419.594 339.094 420.582 339.094 421.848C339.094 423.012 339.344 423.922 339.844 424.578C340.352 425.234 341.051 425.562 341.941 425.562ZM356.496 428.07C355.934 428.117 355.242 428.141 354.422 428.141C353.234 428.141 352.379 427.93 351.855 427.508C351.34 427.078 351.082 426.379 351.082 425.41V417.605H349.312V415.25H351.082V411.816H354.445V415.25H356.496V417.605H354.445V424.848C354.445 425.145 354.531 425.34 354.703 425.434C354.883 425.527 355.25 425.574 355.805 425.574H356.496V428.07ZM363.68 428.328C361.742 428.328 360.246 427.73 359.191 426.535C358.145 425.34 357.621 423.637 357.621 421.426C357.621 419.387 358.156 417.793 359.227 416.645C360.297 415.488 361.781 414.91 363.68 414.91C365.625 414.91 367.121 415.5 368.168 416.68C369.223 417.852 369.75 419.523 369.75 421.695C369.766 421.945 369.746 422.199 369.691 422.457H361.008C361.086 423.465 361.309 424.219 361.676 424.719C362.145 425.344 362.926 425.656 364.02 425.656C364.527 425.656 364.996 425.512 365.426 425.223C365.863 424.934 366.125 424.586 366.211 424.18H369.633C369.344 425.477 368.672 426.492 367.617 427.227C366.57 427.961 365.258 428.328 363.68 428.328ZM366.246 420.312C366.168 419.547 365.965 418.949 365.637 418.52C365.207 417.949 364.539 417.664 363.633 417.664C362.766 417.664 362.105 417.996 361.652 418.66C361.371 419.082 361.168 419.633 361.043 420.312H366.246ZM371.965 428V415.25H373.559H375.164V417.301C375.312 416.941 375.5 416.621 375.727 416.34C376.469 415.387 377.547 414.91 378.961 414.91C380.086 414.91 381.008 415.289 381.727 416.047C382.008 416.336 382.23 416.656 382.395 417.008L382.805 416.34C383.5 415.387 384.512 414.91 385.84 414.91C387.223 414.91 388.305 415.32 389.086 416.141C389.867 416.961 390.258 418.098 390.258 419.551V428H388.582H386.895V420.512C386.895 419.559 386.738 418.855 386.426 418.402C386.113 417.941 385.629 417.711 384.973 417.711C384.27 417.711 383.73 417.93 383.355 418.367C382.988 418.797 382.805 419.418 382.805 420.23V428H381.129H379.441V419.961C379.441 419.195 379.277 418.629 378.949 418.262C378.621 417.895 378.117 417.711 377.438 417.711C376.758 417.711 376.234 417.93 375.867 418.367C375.508 418.797 375.328 419.418 375.328 420.23V428H373.652H371.965ZM393.246 410.773H394.922H396.609V416.914L396.68 416.82C397.586 415.547 398.781 414.91 400.266 414.91C401.883 414.91 403.184 415.508 404.168 416.703C405.152 417.898 405.645 419.473 405.645 421.426C405.645 423.496 405.152 425.164 404.168 426.43C403.184 427.695 401.883 428.328 400.266 428.328C398.789 428.328 397.594 427.734 396.68 426.547L396.539 426.359V428H393.246V410.773ZM399.305 425.562C400.211 425.562 400.918 425.227 401.426 424.555C401.934 423.875 402.188 422.934 402.188 421.73C402.188 420.504 401.934 419.547 401.426 418.859C400.918 418.164 400.215 417.816 399.316 417.816C398.418 417.816 397.715 418.172 397.207 418.883C396.699 419.594 396.445 420.582 396.445 421.848C396.445 423.012 396.699 423.922 397.207 424.578C397.707 425.234 398.406 425.562 399.305 425.562ZM413.062 428.328C411.125 428.328 409.629 427.73 408.574 426.535C407.527 425.34 407.004 423.637 407.004 421.426C407.004 419.387 407.539 417.793 408.609 416.645C409.68 415.488 411.164 414.91 413.062 414.91C415.008 414.91 416.504 415.5 417.551 416.68C418.605 417.852 419.133 419.523 419.133 421.695C419.148 421.945 419.129 422.199 419.074 422.457H410.391C410.469 423.465 410.691 424.219 411.059 424.719C411.527 425.344 412.309 425.656 413.402 425.656C413.91 425.656 414.379 425.512 414.809 425.223C415.246 424.934 415.508 424.586 415.594 424.18H419.016C418.727 425.477 418.055 426.492 417 427.227C415.953 427.961 414.641 428.328 413.062 428.328ZM415.629 420.312C415.551 419.547 415.348 418.949 415.02 418.52C414.59 417.949 413.922 417.664 413.016 417.664C412.148 417.664 411.488 417.996 411.035 418.66C410.754 419.082 410.551 419.633 410.426 420.312H415.629ZM421.348 428V415.25H422.941H424.547V417.535C424.664 417.285 424.797 417.043 424.945 416.809C425.734 415.543 426.754 414.91 428.004 414.91L428.766 414.922V418.355C428.469 418.324 428.133 418.309 427.758 418.309C426.734 418.309 425.969 418.562 425.461 419.07C424.961 419.578 424.711 420.348 424.711 421.379V428H423.035H421.348ZM430.699 426.254V424.508H432.504H434.297V427.52C434.297 428.762 434.004 429.75 433.418 430.484C432.832 431.227 431.926 431.746 430.699 432.043V430.754C431.504 430.48 432.047 430.082 432.328 429.559C432.531 429.199 432.652 428.68 432.691 428H431.777H430.699V426.254ZM454.793 416.281C454.793 417.578 454.488 418.652 453.879 419.504C453.277 420.355 452.145 421.312 450.48 422.375C448.941 423.352 447.891 424.234 447.328 425.023L447.316 425.047H454.793V428H443.145C443.145 426.438 443.539 425.098 444.328 423.98C445.117 422.863 446.602 421.539 448.781 420.008C449.758 419.328 450.445 418.707 450.844 418.145C451.242 417.574 451.441 416.941 451.441 416.246C451.441 415.488 451.223 414.879 450.785 414.418C450.348 413.957 449.77 413.727 449.051 413.727C448.285 413.727 447.688 414.016 447.258 414.594C446.828 415.172 446.629 415.957 446.66 416.949H443.367C443.312 415.098 443.797 413.629 444.82 412.543C445.852 411.457 447.27 410.914 449.074 410.914C450.754 410.914 452.129 411.414 453.199 412.414C454.262 413.414 454.793 414.703 454.793 416.281ZM462.551 428.445C460.551 428.445 459.07 427.738 458.109 426.324C457.148 424.902 456.664 422.719 456.656 419.773C456.664 416.758 457.148 414.527 458.109 413.082C459.07 411.637 460.551 410.914 462.551 410.914C464.566 410.914 466.055 411.637 467.016 413.082C467.977 414.527 468.457 416.73 468.457 419.691V419.773C468.465 422.719 467.984 424.902 467.016 426.324C466.055 427.738 464.566 428.445 462.551 428.445ZM462.551 425.727C463.449 425.727 464.082 425.277 464.449 424.379C464.816 423.48 465 421.938 465 419.75C465.008 417.508 464.824 415.93 464.449 415.016C464.082 414.094 463.449 413.633 462.551 413.633C461.66 413.633 461.031 414.094 460.664 415.016C460.305 415.93 460.121 417.508 460.113 419.75C460.113 421.938 460.297 423.48 460.664 424.379C461.031 425.277 461.66 425.727 462.551 425.727ZM481.512 416.281C481.512 417.578 481.207 418.652 480.598 419.504C479.996 420.355 478.863 421.312 477.199 422.375C475.66 423.352 474.609 424.234 474.047 425.023L474.035 425.047H481.512V428H469.863C469.863 426.438 470.258 425.098 471.047 423.98C471.836 422.863 473.32 421.539 475.5 420.008C476.477 419.328 477.164 418.707 477.562 418.145C477.961 417.574 478.16 416.941 478.16 416.246C478.16 415.488 477.941 414.879 477.504 414.418C477.066 413.957 476.488 413.727 475.77 413.727C475.004 413.727 474.406 414.016 473.977 414.594C473.547 415.172 473.348 415.957 473.379 416.949H470.086C470.031 415.098 470.516 413.629 471.539 412.543C472.57 411.457 473.988 410.914 475.793 410.914C477.473 410.914 478.848 411.414 479.918 412.414C480.98 413.414 481.512 414.703 481.512 416.281ZM488.355 428V416.223H484.254V413.82C485.301 413.875 486.238 413.645 487.066 413.129C487.902 412.613 488.535 411.875 488.965 410.914H491.719V428H490.043H488.355Z" fill="white"/>
</g>
<defs>
<clipPath id="clip0_575_31939">
<rect width="800" height="446" fill="white"/>
</clipPath>
</defs>
</svg>
