<?xml version="1.0" encoding="utf-8"?>
<!-- Generator: Adobe Illustrator 28.0.0, SVG Export Plug-In . SVG Version: 6.00 Build 0)  -->
<svg version="1.1" id="图层_1" xmlns="http://www.w3.org/2000/svg" xmlns:xlink="http://www.w3.org/1999/xlink" x="0px" y="0px"
	 viewBox="0 0 800 446" style="enable-background:new 0 0 800 446;" xml:space="preserve">
<style type="text/css">
	.st0{clip-path:url(#SVGID_00000026145952164182468030000011858452572883274669_);}
	.st1{fill:none;stroke:#DB673D;stroke-width:1.5;stroke-linejoin:round;stroke-miterlimit:10;stroke-opacity:0.5;}
	
		.st2{opacity:0.3;fill:none;stroke:#EBEBEB;stroke-width:0.454;stroke-linejoin:round;stroke-miterlimit:10;enable-background:new    ;}
	
		.st3{opacity:0.3;fill:none;stroke:#EBEBEB;stroke-width:0.9165;stroke-linejoin:round;stroke-miterlimit:10;enable-background:new    ;}
	.st4{fill:#FFFFFF;}
	.st5{fill:#DB673D;stroke:#DB673D;stroke-width:0.6081;stroke-linecap:round;stroke-linejoin:round;stroke-miterlimit:10;}
</style>
<g>
	<defs>
		<rect id="SVGID_1_" width="800" height="446"/>
	</defs>
	<clipPath id="SVGID_00000065792612431984066760000012096342934857718191_">
		<use xlink:href="#SVGID_1_"  style="overflow:visible;"/>
	</clipPath>
	<g style="clip-path:url(#SVGID_00000065792612431984066760000012096342934857718191_);">
		<path class="st1" d="M127.8,284l22.1,3.3l22-77.1h22l22.1-46.5l44.1,41.6l22,49l22.1,7.1l22-212l22,197.3l22.1-82.9l22,157.7
			l22.1-12.3l22,7.2l22.1,39.5l22-187.8l22-54.1l22.1,159.8l22,27.4l22.1-11.7l22-50.8l22.1,114.1l22-136.9l22-76.1l22.1,161
			l22-19.5l22.1-30.7l22,4.4l22,13.8"/>
		<path class="st2" d="M95.8,319.1h703.4"/>
		<path class="st2" d="M95.8,245.2h703.4"/>
		<path class="st2" d="M95.8,171.5h703.4"/>
		<path class="st2" d="M95.8,97.7h703.4"/>
		<path class="st2" d="M127.8,371.2V34.1"/>
		<path class="st2" d="M171.9,371.2V34.1"/>
		<path class="st2" d="M216,371.2V34.1"/>
		<path class="st2" d="M260.1,371.2V34.1"/>
		<path class="st2" d="M304.2,371.2V34.1"/>
		<path class="st2" d="M348.3,371.2V34.1"/>
		<path class="st2" d="M392.4,371.2V34.1"/>
		<path class="st2" d="M436.5,371.2V34.1"/>
		<path class="st2" d="M480.6,371.2V34.1"/>
		<path class="st2" d="M524.7,371.2V34.1"/>
		<path class="st2" d="M568.8,371.2V34.1"/>
		<path class="st2" d="M612.9,371.2V34.1"/>
		<path class="st2" d="M657,371.2V34.1"/>
		<path class="st2" d="M701.1,371.2V34.1"/>
		<path class="st2" d="M745.2,371.2V34.1"/>
		<path class="st2" d="M789.3,371.2V34.1"/>
		<path class="st3" d="M95.8,355.9h703.4"/>
		<path class="st3" d="M95.8,282.1h703.4"/>
		<path class="st3" d="M95.8,208.4h703.4"/>
		<path class="st3" d="M95.8,134.6h703.4"/>
		<path class="st3" d="M95.8,60.8h703.4"/>
		<path class="st3" d="M105.8,371.2V34.1"/>
		<path class="st3" d="M149.9,371.2V34.1"/>
		<path class="st3" d="M193.9,371.2V34.1"/>
		<path class="st3" d="M238,371.2V34.1"/>
		<path class="st3" d="M282.1,371.2V34.1"/>
		<path class="st3" d="M326.3,371.2V34.1"/>
		<path class="st3" d="M370.4,371.2V34.1"/>
		<path class="st3" d="M414.5,371.2V34.1"/>
		<path class="st3" d="M458.6,371.2V34.1"/>
		<path class="st3" d="M502.6,371.2V34.1"/>
		<path class="st3" d="M546.7,371.2V34.1"/>
		<path class="st3" d="M590.8,371.2V34.1"/>
		<path class="st3" d="M634.9,371.2V34.1"/>
		<path class="st3" d="M679.1,371.2V34.1"/>
		<path class="st3" d="M723.2,371.2V34.1"/>
		<path class="st3" d="M767.2,371.2V34.1"/>
		<path class="st4" d="M82,354.7c0-0.9,0.1-1.6,0.3-2.1c0.2-0.5,0.4-0.9,0.8-1.2c0.4-0.3,0.8-0.4,1.3-0.4c0.4,0,0.7,0.1,1,0.2
			c0.3,0.2,0.5,0.4,0.7,0.7c0.2,0.3,0.3,0.7,0.5,1.1c0.1,0.4,0.2,1,0.2,1.7c0,0.9-0.1,1.6-0.3,2.1c-0.2,0.5-0.4,0.9-0.8,1.2
			c-0.4,0.3-0.8,0.4-1.3,0.4c-0.7,0-1.3-0.3-1.7-0.8C82.2,357.1,82,356.1,82,354.7z M82.9,354.7c0,1.2,0.1,2,0.4,2.4
			c0.3,0.4,0.6,0.6,1,0.6c0.4,0,0.8-0.2,1-0.6c0.3-0.4,0.4-1.2,0.4-2.4c0-1.2-0.1-2-0.4-2.4c-0.3-0.4-0.6-0.6-1.1-0.6
			c-0.4,0-0.7,0.2-1,0.5C83.1,352.7,82.9,353.5,82.9,354.7z"/>
		<path class="st4" d="M66.7,283.7v0.9h-4.9c0-0.2,0-0.4,0.1-0.6c0.1-0.3,0.3-0.7,0.6-1c0.3-0.3,0.7-0.7,1.2-1.1
			c0.8-0.7,1.3-1.2,1.6-1.6c0.3-0.4,0.4-0.7,0.4-1.1c0-0.4-0.1-0.7-0.4-0.9c-0.3-0.2-0.6-0.4-1-0.4c-0.4,0-0.8,0.1-1,0.4
			c-0.3,0.3-0.4,0.6-0.4,1.1l-0.9-0.1c0.1-0.7,0.3-1.2,0.7-1.6c0.4-0.4,1-0.5,1.7-0.5c0.7,0,1.3,0.2,1.7,0.6
			c0.4,0.4,0.6,0.9,0.6,1.5c0,0.3-0.1,0.6-0.2,0.9c-0.1,0.3-0.3,0.6-0.6,0.9c-0.3,0.3-0.7,0.7-1.4,1.3c-0.5,0.5-0.9,0.8-1,0.9
			c-0.2,0.2-0.3,0.3-0.4,0.5H66.7z M68.2,284.6v-1h1v1c0,0.4-0.1,0.7-0.2,0.9c-0.1,0.2-0.3,0.4-0.6,0.5l-0.3-0.4
			c0.2-0.1,0.3-0.2,0.4-0.4c0.1-0.2,0.1-0.4,0.2-0.7H68.2z M70.6,282.6l0.9-0.1c0.1,0.5,0.2,0.8,0.5,1c0.3,0.2,0.6,0.3,0.9,0.3
			c0.4,0,0.8-0.2,1.1-0.5c0.3-0.3,0.5-0.8,0.5-1.3c0-0.5-0.1-0.9-0.4-1.2c-0.3-0.3-0.7-0.4-1.1-0.4c-0.3,0-0.6,0.1-0.8,0.2
			c-0.2,0.1-0.4,0.3-0.6,0.5l-0.8-0.1l0.7-3.8h3.7v0.9h-2.9l-0.4,2c0.4-0.3,0.9-0.5,1.4-0.5c0.6,0,1.2,0.2,1.6,0.7
			c0.4,0.4,0.7,1,0.7,1.7c0,0.7-0.2,1.2-0.6,1.7c-0.5,0.6-1.1,0.9-1.9,0.9c-0.7,0-1.2-0.2-1.6-0.6C70.9,283.7,70.6,283.2,70.6,282.6
			z M76.3,280.9c0-0.9,0.1-1.6,0.3-2.1c0.2-0.5,0.4-0.9,0.8-1.2c0.4-0.3,0.8-0.4,1.3-0.4c0.4,0,0.7,0.1,1,0.2
			c0.3,0.2,0.5,0.4,0.7,0.7c0.2,0.3,0.3,0.7,0.5,1.1c0.1,0.4,0.2,1,0.2,1.7c0,0.9-0.1,1.6-0.3,2.1c-0.2,0.5-0.4,0.9-0.8,1.2
			c-0.4,0.3-0.8,0.4-1.3,0.4c-0.7,0-1.3-0.3-1.7-0.8C76.5,283.3,76.3,282.3,76.3,280.9z M77.2,280.9c0,1.2,0.1,2,0.4,2.4
			c0.3,0.4,0.6,0.6,1,0.6s0.8-0.2,1-0.6c0.3-0.4,0.4-1.2,0.4-2.4c0-1.2-0.1-2-0.4-2.4c-0.3-0.4-0.6-0.6-1.1-0.6
			c-0.4,0-0.7,0.2-1,0.5C77.4,278.9,77.2,279.7,77.2,280.9z M82,280.9c0-0.9,0.1-1.6,0.3-2.1c0.2-0.5,0.4-0.9,0.8-1.2
			c0.4-0.3,0.8-0.4,1.3-0.4c0.4,0,0.7,0.1,1,0.2c0.3,0.2,0.5,0.4,0.7,0.7c0.2,0.3,0.3,0.7,0.5,1.1c0.1,0.4,0.2,1,0.2,1.7
			c0,0.9-0.1,1.6-0.3,2.1c-0.2,0.5-0.4,0.9-0.8,1.2c-0.4,0.3-0.8,0.4-1.3,0.4c-0.7,0-1.3-0.3-1.7-0.8C82.3,283.3,82,282.3,82,280.9z
			 M82.9,280.9c0,1.2,0.1,2,0.4,2.4c0.3,0.4,0.6,0.6,1,0.6c0.4,0,0.8-0.2,1-0.6c0.3-0.4,0.4-1.2,0.4-2.4c0-1.2-0.1-2-0.4-2.4
			c-0.3-0.4-0.6-0.6-1.1-0.6c-0.4,0-0.7,0.2-1,0.5C83.1,278.9,82.9,279.7,82.9,280.9z"/>
		<path class="st4" d="M62,208.9l0.9-0.1c0.1,0.5,0.2,0.8,0.5,1c0.3,0.2,0.6,0.3,0.9,0.3c0.4,0,0.8-0.2,1.1-0.5
			c0.3-0.3,0.5-0.8,0.5-1.3c0-0.5-0.1-0.9-0.4-1.2c-0.3-0.3-0.7-0.4-1.1-0.4c-0.3,0-0.6,0.1-0.8,0.2c-0.2,0.1-0.4,0.3-0.6,0.5
			l-0.8-0.1l0.7-3.8h3.7v0.9h-2.9l-0.4,2c0.4-0.3,0.9-0.5,1.4-0.5c0.6,0,1.2,0.2,1.6,0.7c0.4,0.4,0.7,1,0.7,1.7
			c0,0.7-0.2,1.2-0.6,1.7c-0.5,0.6-1.1,0.9-1.9,0.9c-0.7,0-1.2-0.2-1.6-0.6C62.3,210,62,209.5,62,208.9z M68.2,210.8v-1h1v1
			c0,0.4-0.1,0.7-0.2,0.9c-0.1,0.2-0.3,0.4-0.6,0.5l-0.3-0.4c0.2-0.1,0.3-0.2,0.4-0.4c0.1-0.2,0.1-0.4,0.2-0.7H68.2z M70.6,207.2
			c0-0.9,0.1-1.6,0.3-2.1c0.2-0.5,0.4-0.9,0.8-1.2c0.4-0.3,0.8-0.4,1.3-0.4c0.4,0,0.7,0.1,1,0.2c0.3,0.2,0.5,0.4,0.7,0.7
			c0.2,0.3,0.3,0.7,0.5,1.1c0.1,0.4,0.2,1,0.2,1.7c0,0.9-0.1,1.6-0.3,2.1c-0.2,0.5-0.4,0.9-0.8,1.2c-0.4,0.3-0.8,0.4-1.3,0.4
			c-0.7,0-1.3-0.3-1.7-0.8C70.8,209.5,70.6,208.5,70.6,207.2z M71.5,207.2c0,1.2,0.1,2,0.4,2.4c0.3,0.4,0.6,0.6,1,0.6
			c0.4,0,0.8-0.2,1-0.6c0.3-0.4,0.4-1.2,0.4-2.4c0-1.2-0.1-2-0.4-2.4c-0.3-0.4-0.6-0.6-1.1-0.6c-0.4,0-0.7,0.2-1,0.5
			C71.6,205.1,71.5,206,71.5,207.2z M76.3,207.2c0-0.9,0.1-1.6,0.3-2.1c0.2-0.5,0.4-0.9,0.8-1.2c0.4-0.3,0.8-0.4,1.3-0.4
			c0.4,0,0.7,0.1,1,0.2c0.3,0.2,0.5,0.4,0.7,0.7c0.2,0.3,0.3,0.7,0.5,1.1c0.1,0.4,0.2,1,0.2,1.7c0,0.9-0.1,1.6-0.3,2.1
			c-0.2,0.5-0.4,0.9-0.8,1.2c-0.4,0.3-0.8,0.4-1.3,0.4c-0.7,0-1.3-0.3-1.7-0.8C76.5,209.5,76.3,208.5,76.3,207.2z M77.2,207.2
			c0,1.2,0.1,2,0.4,2.4c0.3,0.4,0.6,0.6,1,0.6s0.8-0.2,1-0.6c0.3-0.4,0.4-1.2,0.4-2.4c0-1.2-0.1-2-0.4-2.4c-0.3-0.4-0.6-0.6-1.1-0.6
			c-0.4,0-0.7,0.2-1,0.5C77.4,205.1,77.2,206,77.2,207.2z M82,207.2c0-0.9,0.1-1.6,0.3-2.1c0.2-0.5,0.4-0.9,0.8-1.2
			c0.4-0.3,0.8-0.4,1.3-0.4c0.4,0,0.7,0.1,1,0.2c0.3,0.2,0.5,0.4,0.7,0.7c0.2,0.3,0.3,0.7,0.5,1.1c0.1,0.4,0.2,1,0.2,1.7
			c0,0.9-0.1,1.6-0.3,2.1c-0.2,0.5-0.4,0.9-0.8,1.2c-0.4,0.3-0.8,0.4-1.3,0.4c-0.7,0-1.3-0.3-1.7-0.8C82.3,209.5,82,208.5,82,207.2z
			 M82.9,207.2c0,1.2,0.1,2,0.4,2.4c0.3,0.4,0.6,0.6,1,0.6c0.4,0,0.8-0.2,1-0.6c0.3-0.4,0.4-1.2,0.4-2.4c0-1.2-0.1-2-0.4-2.4
			c-0.3-0.4-0.6-0.6-1.1-0.6c-0.4,0-0.7,0.2-1,0.5C83.1,205.1,82.9,206,82.9,207.2z"/>
		<path class="st4" d="M62,130.6v-0.9h4.8v0.7c-0.5,0.5-0.9,1.2-1.4,2c-0.5,0.8-0.8,1.7-1.1,2.5c-0.2,0.6-0.3,1.3-0.3,2h-0.9
			c0-0.6,0.1-1.3,0.3-2.1c0.2-0.8,0.5-1.6,0.9-2.4c0.4-0.8,0.8-1.4,1.3-1.9H62z M68.2,137v-1h1v1c0,0.4-0.1,0.7-0.2,0.9
			c-0.1,0.2-0.3,0.4-0.6,0.5l-0.3-0.4c0.2-0.1,0.3-0.2,0.4-0.4c0.1-0.2,0.1-0.4,0.2-0.7H68.2z M70.6,135.1l0.9-0.1
			c0.1,0.5,0.2,0.8,0.5,1c0.3,0.2,0.6,0.3,0.9,0.3c0.4,0,0.8-0.2,1.1-0.5c0.3-0.3,0.5-0.8,0.5-1.3c0-0.5-0.1-0.9-0.4-1.2
			c-0.3-0.3-0.7-0.4-1.1-0.4c-0.3,0-0.6,0.1-0.8,0.2c-0.2,0.1-0.4,0.3-0.6,0.5l-0.8-0.1l0.7-3.8h3.7v0.9h-2.9l-0.4,2
			c0.4-0.3,0.9-0.5,1.4-0.5c0.6,0,1.2,0.2,1.6,0.7c0.4,0.4,0.7,1,0.7,1.7c0,0.7-0.2,1.2-0.6,1.7c-0.5,0.6-1.1,0.9-1.9,0.9
			c-0.7,0-1.2-0.2-1.6-0.6C70.9,136.2,70.6,135.7,70.6,135.1z M76.3,133.4c0-0.9,0.1-1.6,0.3-2.1c0.2-0.5,0.4-0.9,0.8-1.2
			c0.4-0.3,0.8-0.4,1.3-0.4c0.4,0,0.7,0.1,1,0.2c0.3,0.2,0.5,0.4,0.7,0.7c0.2,0.3,0.3,0.7,0.5,1.1c0.1,0.4,0.2,1,0.2,1.7
			c0,0.9-0.1,1.6-0.3,2.1c-0.2,0.5-0.4,0.9-0.8,1.2c-0.4,0.3-0.8,0.4-1.3,0.4c-0.7,0-1.3-0.3-1.7-0.8
			C76.5,135.8,76.3,134.8,76.3,133.4z M77.2,133.4c0,1.2,0.1,2,0.4,2.4c0.3,0.4,0.6,0.6,1,0.6s0.8-0.2,1-0.6
			c0.3-0.4,0.4-1.2,0.4-2.4c0-1.2-0.1-2-0.4-2.4c-0.3-0.4-0.6-0.6-1.1-0.6c-0.4,0-0.7,0.2-1,0.5C77.4,131.4,77.2,132.2,77.2,133.4z
			 M82,133.4c0-0.9,0.1-1.6,0.3-2.1c0.2-0.5,0.4-0.9,0.8-1.2c0.4-0.3,0.8-0.4,1.3-0.4c0.4,0,0.7,0.1,1,0.2c0.3,0.2,0.5,0.4,0.7,0.7
			c0.2,0.3,0.3,0.7,0.5,1.1c0.1,0.4,0.2,1,0.2,1.7c0,0.9-0.1,1.6-0.3,2.1c-0.2,0.5-0.4,0.9-0.8,1.2c-0.4,0.3-0.8,0.4-1.3,0.4
			c-0.7,0-1.3-0.3-1.7-0.8C82.3,135.8,82,134.8,82,133.4z M82.9,133.4c0,1.2,0.1,2,0.4,2.4c0.3,0.4,0.6,0.6,1,0.6
			c0.4,0,0.8-0.2,1-0.6c0.3-0.4,0.4-1.2,0.4-2.4c0-1.2-0.1-2-0.4-2.4c-0.3-0.4-0.6-0.6-1.1-0.6c-0.4,0-0.7,0.2-1,0.5
			C83.1,131.4,82.9,132.2,82.9,133.4z"/>
		<path class="st4" d="M59.7,63.3h-0.9v-5.8c-0.2,0.2-0.5,0.4-0.9,0.6c-0.4,0.2-0.7,0.4-0.9,0.5v-0.9c0.5-0.2,0.9-0.5,1.3-0.9
			c0.4-0.3,0.6-0.7,0.8-1h0.6V63.3z M62,59.6c0-0.9,0.1-1.6,0.3-2.1c0.2-0.5,0.4-0.9,0.8-1.2c0.4-0.3,0.8-0.4,1.3-0.4
			c0.4,0,0.7,0.1,1,0.2c0.3,0.2,0.5,0.4,0.7,0.7c0.2,0.3,0.3,0.7,0.5,1.1c0.1,0.4,0.2,1,0.2,1.7c0,0.9-0.1,1.6-0.3,2.1
			c-0.2,0.5-0.4,0.9-0.8,1.2c-0.4,0.3-0.8,0.4-1.3,0.4c-0.7,0-1.3-0.3-1.7-0.8C62.2,62,62,61,62,59.6z M62.9,59.6
			c0,1.2,0.1,2,0.4,2.4c0.3,0.4,0.6,0.6,1,0.6c0.4,0,0.8-0.2,1-0.6c0.3-0.4,0.4-1.2,0.4-2.4c0-1.2-0.1-2-0.4-2.4
			c-0.3-0.4-0.6-0.6-1.1-0.6c-0.4,0-0.7,0.2-1,0.5C63.1,57.6,62.9,58.4,62.9,59.6z M68.2,63.3v-1h1v1c0,0.4-0.1,0.7-0.2,0.9
			c-0.1,0.2-0.3,0.4-0.6,0.5l-0.3-0.4c0.2-0.1,0.3-0.2,0.4-0.4c0.1-0.2,0.1-0.4,0.2-0.7H68.2z M70.6,59.6c0-0.9,0.1-1.6,0.3-2.1
			c0.2-0.5,0.4-0.9,0.8-1.2c0.4-0.3,0.8-0.4,1.3-0.4c0.4,0,0.7,0.1,1,0.2c0.3,0.2,0.5,0.4,0.7,0.7c0.2,0.3,0.3,0.7,0.5,1.1
			c0.1,0.4,0.2,1,0.2,1.7c0,0.9-0.1,1.6-0.3,2.1c-0.2,0.5-0.4,0.9-0.8,1.2c-0.4,0.3-0.8,0.4-1.3,0.4c-0.7,0-1.3-0.3-1.7-0.8
			C70.8,62,70.6,61,70.6,59.6z M71.5,59.6c0,1.2,0.1,2,0.4,2.4c0.3,0.4,0.6,0.6,1,0.6c0.4,0,0.8-0.2,1-0.6c0.3-0.4,0.4-1.2,0.4-2.4
			c0-1.2-0.1-2-0.4-2.4c-0.3-0.4-0.6-0.6-1.1-0.6c-0.4,0-0.7,0.2-1,0.5C71.7,57.6,71.5,58.4,71.5,59.6z M76.3,59.6
			c0-0.9,0.1-1.6,0.3-2.1c0.2-0.5,0.4-0.9,0.8-1.2c0.4-0.3,0.8-0.4,1.3-0.4c0.4,0,0.7,0.1,1,0.2c0.3,0.2,0.5,0.4,0.7,0.7
			c0.2,0.3,0.3,0.7,0.5,1.1c0.1,0.4,0.2,1,0.2,1.7c0,0.9-0.1,1.6-0.3,2.1c-0.2,0.5-0.4,0.9-0.8,1.2c-0.4,0.3-0.8,0.4-1.3,0.4
			c-0.7,0-1.3-0.3-1.7-0.8C76.5,62,76.3,61,76.3,59.6z M77.2,59.6c0,1.2,0.1,2,0.4,2.4c0.3,0.4,0.6,0.6,1,0.6c0.4,0,0.8-0.2,1-0.6
			c0.3-0.4,0.4-1.2,0.4-2.4c0-1.2-0.1-2-0.4-2.4c-0.3-0.4-0.6-0.6-1.1-0.6c-0.4,0-0.7,0.2-1,0.5C77.4,57.6,77.2,58.4,77.2,59.6z
			 M82,59.6c0-0.9,0.1-1.6,0.3-2.1c0.2-0.5,0.4-0.9,0.8-1.2c0.4-0.3,0.8-0.4,1.3-0.4c0.4,0,0.7,0.1,1,0.2c0.3,0.2,0.5,0.4,0.7,0.7
			c0.2,0.3,0.3,0.7,0.5,1.1c0.1,0.4,0.2,1,0.2,1.7c0,0.9-0.1,1.6-0.3,2.1c-0.2,0.5-0.4,0.9-0.8,1.2c-0.4,0.3-0.8,0.4-1.3,0.4
			c-0.7,0-1.3-0.3-1.7-0.8C82.3,62,82,61,82,59.6z M82.9,59.6c0,1.2,0.1,2,0.4,2.4c0.3,0.4,0.6,0.6,1,0.6s0.8-0.2,1-0.6
			c0.3-0.4,0.4-1.2,0.4-2.4c0-1.2-0.1-2-0.4-2.4c-0.3-0.4-0.6-0.6-1.1-0.6c-0.4,0-0.7,0.2-1,0.5C83.1,57.6,82.9,58.4,82.9,59.6z"/>
		<path class="st4" d="M0.6,2.8h3.2L5,9l1.7-6.2h3.2L11.6,9l1.2-6.2H16l-2.4,11h-3.3L8.3,6.9l-1.9,6.9H3L0.6,2.8z M25.4,10.6h-6.1
			c0.1,0.5,0.2,0.9,0.4,1.1c0.3,0.3,0.7,0.5,1.2,0.5c0.3,0,0.6-0.1,0.9-0.2c0.2-0.1,0.3-0.3,0.5-0.5l3,0.3c-0.5,0.8-1,1.4-1.7,1.7
			C22.9,13.9,22,14,20.8,14c-1.1,0-1.9-0.1-2.5-0.4c-0.6-0.3-1.1-0.8-1.5-1.4c-0.4-0.7-0.6-1.4-0.6-2.3c0-1.2,0.4-2.3,1.2-3
			c0.8-0.8,1.9-1.2,3.3-1.2c1.1,0,2,0.2,2.7,0.5C24,6.5,24.5,7,24.9,7.7c0.3,0.7,0.5,1.5,0.5,2.6V10.6z M22.3,9.1
			c-0.1-0.6-0.2-1-0.5-1.3c-0.3-0.3-0.6-0.4-1-0.4c-0.5,0-0.9,0.2-1.2,0.6c-0.2,0.2-0.3,0.6-0.4,1.1H22.3z M26.9,2.8H30v2.1h-3.1
			V2.8z M26.9,5.9H30v8h-3.1V5.9z M37.5,5.9h2.9v7.6l0,0.4c0,0.5-0.1,1-0.3,1.4c-0.2,0.5-0.5,0.8-0.9,1.1c-0.4,0.3-0.8,0.5-1.3,0.6
			c-0.5,0.1-1.2,0.2-1.9,0.2c-1.6,0-2.7-0.2-3.3-0.7c-0.6-0.5-0.9-1.1-0.9-1.9c0-0.1,0-0.2,0-0.4l3,0.3c0.1,0.3,0.2,0.5,0.3,0.6
			c0.2,0.2,0.5,0.2,0.9,0.2c0.4,0,0.8-0.1,1-0.4c0.2-0.2,0.3-0.6,0.3-1.2v-1.2c-0.3,0.4-0.6,0.6-0.9,0.8c-0.5,0.3-1,0.4-1.5,0.4
			c-1.1,0-1.9-0.5-2.6-1.4c-0.5-0.7-0.7-1.5-0.7-2.6c0-1.2,0.3-2.2,0.9-2.8c0.6-0.7,1.4-1,2.4-1c0.6,0,1.1,0.1,1.5,0.3
			c0.4,0.2,0.8,0.6,1.1,1V5.9z M34.6,9.7c0,0.6,0.1,1,0.4,1.3c0.2,0.3,0.6,0.4,1,0.4c0.4,0,0.7-0.1,1-0.4c0.3-0.3,0.4-0.7,0.4-1.3
			c0-0.6-0.1-1-0.4-1.3c-0.3-0.3-0.6-0.5-1-0.5c-0.4,0-0.7,0.1-0.9,0.4C34.7,8.6,34.6,9.1,34.6,9.7z M42.2,2.8h3.1v4.1
			c0.4-0.4,0.8-0.7,1.2-0.9c0.4-0.2,0.9-0.3,1.5-0.3c0.8,0,1.5,0.3,2,0.8c0.5,0.5,0.7,1.3,0.7,2.3v5.1h-3.1V9.5
			c0-0.5-0.1-0.9-0.3-1.1c-0.2-0.2-0.4-0.3-0.8-0.3c-0.4,0-0.7,0.1-0.9,0.4s-0.3,0.8-0.3,1.5v3.8h-3.1V2.8z M56.2,2.8v3h1.7v2.2
			h-1.7v2.8c0,0.3,0,0.6,0.1,0.7c0.1,0.2,0.3,0.3,0.5,0.3c0.2,0,0.5-0.1,0.9-0.2l0.2,2.1C57.2,14,56.5,14,55.9,14
			c-0.8,0-1.3-0.1-1.7-0.3c-0.4-0.2-0.6-0.5-0.8-0.9c-0.2-0.4-0.3-1-0.3-1.9V8.1H52V5.9h1.1V4.4L56.2,2.8z M67.1,2.6H69
			c-0.7,1.5-1.1,2.8-1.4,4c-0.2,1-0.4,2.2-0.4,3.4c0,2.3,0.6,4.7,1.8,7.1h-1.9c-1-1.4-1.7-2.6-2.1-3.7c-0.4-1.1-0.6-2.3-0.6-3.5
			c0-1.3,0.2-2.5,0.6-3.6C65.5,5.1,66.1,3.9,67.1,2.6z M70.7,2.8h3.4v8.3h5.3v2.7h-8.7V2.8z M80.8,2.8h3.1v3.8
			c0.3-0.3,0.7-0.6,1-0.7c0.4-0.2,0.8-0.2,1.3-0.2c1,0,1.8,0.4,2.4,1.1c0.6,0.7,1,1.7,1,3c0,0.9-0.1,1.6-0.4,2.3
			c-0.3,0.7-0.7,1.2-1.2,1.5c-0.5,0.3-1.1,0.5-1.7,0.5c-0.5,0-1-0.1-1.5-0.3c-0.3-0.2-0.7-0.5-1.1-1v1.2h-2.9V2.8z M83.9,9.8
			c0,0.7,0.1,1.2,0.4,1.5c0.3,0.3,0.6,0.5,1,0.5c0.4,0,0.7-0.2,0.9-0.5c0.3-0.3,0.4-0.8,0.4-1.5c0-0.6-0.1-1.1-0.4-1.4
			C85.9,8.1,85.7,8,85.3,8c-0.4,0-0.8,0.2-1,0.5C84,8.7,83.9,9.2,83.9,9.8z M90.5,11.6l3-0.3c0.1,0.4,0.3,0.6,0.5,0.8
			c0.2,0.2,0.5,0.2,0.9,0.2c0.4,0,0.7-0.1,1-0.3c0.2-0.1,0.3-0.3,0.3-0.5c0-0.2-0.1-0.4-0.3-0.5c-0.2-0.1-0.6-0.2-1.3-0.3
			c-1.1-0.2-1.8-0.4-2.2-0.5c-0.4-0.2-0.8-0.4-1-0.8c-0.3-0.4-0.4-0.8-0.4-1.3c0-0.5,0.2-1,0.5-1.4c0.3-0.4,0.7-0.7,1.3-0.9
			c0.5-0.2,1.3-0.3,2.2-0.3c1,0,1.7,0.1,2.1,0.2C97.3,6,97.7,6.3,98,6.6c0.3,0.3,0.6,0.7,0.8,1.2l-2.9,0.3c-0.1-0.3-0.2-0.4-0.4-0.6
			c-0.2-0.2-0.5-0.2-0.9-0.2c-0.3,0-0.6,0.1-0.8,0.2c-0.2,0.1-0.2,0.3-0.2,0.4c0,0.2,0.1,0.3,0.3,0.4c0.2,0.1,0.6,0.2,1.3,0.3
			c1,0.1,1.8,0.3,2.3,0.5c0.5,0.2,0.9,0.5,1.1,0.9c0.3,0.4,0.4,0.8,0.4,1.3c0,0.5-0.1,0.9-0.4,1.3c-0.3,0.4-0.7,0.8-1.3,1
			c-0.6,0.3-1.4,0.4-2.4,0.4c-1.5,0-2.5-0.2-3.1-0.6C91.1,13,90.7,12.4,90.5,11.6z M102.1,2.6c0.9,1.2,1.6,2.4,2,3.6
			c0.4,1.1,0.6,2.4,0.6,3.6c0,1.2-0.2,2.4-0.6,3.5c-0.4,1.1-1.1,2.4-2,3.7h-1.9c1.2-2.4,1.8-4.8,1.8-7.1c0-1.2-0.1-2.3-0.4-3.4
			c-0.3-1.2-0.8-2.6-1.4-4H102.1z"/>
		<path class="st4" d="M100.5,387.2l0.9-0.1c0.1,0.5,0.3,0.9,0.5,1.1c0.3,0.2,0.6,0.3,0.9,0.3c0.4,0,0.8-0.1,1.1-0.4
			c0.3-0.3,0.4-0.7,0.4-1.1c0-0.4-0.1-0.8-0.4-1c-0.3-0.3-0.6-0.4-1-0.4c-0.2,0-0.4,0-0.6,0.1l0.1-0.8c0.1,0,0.1,0,0.1,0
			c0.4,0,0.7-0.1,1-0.3c0.3-0.2,0.5-0.5,0.5-0.9c0-0.3-0.1-0.6-0.3-0.8c-0.2-0.2-0.5-0.3-0.9-0.3c-0.4,0-0.6,0.1-0.9,0.3
			c-0.2,0.2-0.4,0.6-0.5,1l-0.9-0.2c0.1-0.6,0.4-1.1,0.8-1.4c0.4-0.3,0.9-0.5,1.5-0.5c0.4,0,0.8,0.1,1.1,0.3
			c0.3,0.2,0.6,0.4,0.8,0.7c0.2,0.3,0.3,0.6,0.3,0.9c0,0.3-0.1,0.6-0.3,0.9c-0.2,0.3-0.4,0.5-0.8,0.6c0.4,0.1,0.8,0.3,1,0.6
			c0.2,0.3,0.4,0.7,0.4,1.2c0,0.6-0.2,1.2-0.7,1.6c-0.5,0.4-1.1,0.7-1.8,0.7c-0.6,0-1.2-0.2-1.6-0.6
			C100.8,388.3,100.5,387.8,100.5,387.2z M109.6,389.1h-0.9v-5.8c-0.2,0.2-0.5,0.4-0.9,0.6c-0.4,0.2-0.7,0.4-0.9,0.5v-0.9
			c0.5-0.2,0.9-0.5,1.3-0.9c0.4-0.3,0.6-0.7,0.8-1h0.6V389.1z"/>
		<path class="st4" d="M144.6,385.5c0-0.9,0.1-1.6,0.3-2.1c0.2-0.5,0.4-0.9,0.8-1.2c0.4-0.3,0.8-0.4,1.3-0.4c0.4,0,0.7,0.1,1,0.2
			c0.3,0.2,0.5,0.4,0.7,0.7c0.2,0.3,0.3,0.7,0.5,1.1c0.1,0.4,0.2,1,0.2,1.7c0,0.9-0.1,1.6-0.3,2.1c-0.2,0.5-0.4,0.9-0.8,1.2
			c-0.4,0.3-0.8,0.4-1.3,0.4c-0.7,0-1.3-0.3-1.7-0.8C144.8,387.9,144.6,386.9,144.6,385.5z M145.5,385.5c0,1.2,0.1,2,0.4,2.4
			c0.3,0.4,0.6,0.6,1,0.6c0.4,0,0.8-0.2,1-0.6c0.3-0.4,0.4-1.2,0.4-2.4c0-1.2-0.1-2-0.4-2.4c-0.3-0.4-0.6-0.6-1.1-0.6
			c-0.4,0-0.7,0.2-1,0.5C145.7,383.5,145.5,384.3,145.5,385.5z M155,388.3v0.9h-4.9c0-0.2,0-0.4,0.1-0.6c0.1-0.3,0.3-0.7,0.6-1
			c0.3-0.3,0.7-0.7,1.2-1.1c0.8-0.7,1.3-1.2,1.6-1.6c0.3-0.4,0.4-0.7,0.4-1.1c0-0.4-0.1-0.7-0.4-0.9c-0.3-0.2-0.6-0.4-1-0.4
			c-0.4,0-0.8,0.1-1,0.4c-0.3,0.3-0.4,0.6-0.4,1.1l-0.9-0.1c0.1-0.7,0.3-1.2,0.7-1.6c0.4-0.4,1-0.5,1.7-0.5c0.7,0,1.3,0.2,1.7,0.6
			c0.4,0.4,0.6,0.9,0.6,1.5c0,0.3-0.1,0.6-0.2,0.9c-0.1,0.3-0.3,0.6-0.6,0.9c-0.3,0.3-0.7,0.7-1.4,1.3c-0.5,0.5-0.9,0.8-1,0.9
			c-0.2,0.2-0.3,0.3-0.4,0.5H155z"/>
		<path class="st4" d="M188.7,385.5c0-0.9,0.1-1.6,0.3-2.1c0.2-0.5,0.4-0.9,0.8-1.2c0.4-0.3,0.8-0.4,1.3-0.4c0.4,0,0.7,0.1,1,0.2
			c0.3,0.2,0.5,0.4,0.7,0.7c0.2,0.3,0.3,0.7,0.5,1.1c0.1,0.4,0.2,1,0.2,1.7c0,0.9-0.1,1.6-0.3,2.1c-0.2,0.5-0.4,0.9-0.8,1.2
			c-0.4,0.3-0.8,0.4-1.3,0.4c-0.7,0-1.3-0.3-1.7-0.8C188.9,387.9,188.7,386.9,188.7,385.5z M189.6,385.5c0,1.2,0.1,2,0.4,2.4
			c0.3,0.4,0.6,0.6,1,0.6s0.8-0.2,1-0.6c0.3-0.4,0.4-1.2,0.4-2.4c0-1.2-0.1-2-0.4-2.4c-0.3-0.4-0.6-0.6-1.1-0.6
			c-0.4,0-0.7,0.2-1,0.5C189.8,383.5,189.6,384.3,189.6,385.5z M197.3,389.1v-1.8h-3.2v-0.8l3.4-4.8h0.7v4.8h1v0.8h-1v1.8H197.3z
			 M197.3,386.5v-3.3l-2.3,3.3H197.3z"/>
		<path class="st4" d="M232.8,385.5c0-0.9,0.1-1.6,0.3-2.1c0.2-0.5,0.4-0.9,0.8-1.2c0.4-0.3,0.8-0.4,1.3-0.4c0.4,0,0.7,0.1,1,0.2
			c0.3,0.2,0.5,0.4,0.7,0.7c0.2,0.3,0.3,0.7,0.5,1.1c0.1,0.4,0.2,1,0.2,1.7c0,0.9-0.1,1.6-0.3,2.1c-0.2,0.5-0.4,0.9-0.8,1.2
			c-0.4,0.3-0.8,0.4-1.3,0.4c-0.7,0-1.3-0.3-1.7-0.8C233,387.9,232.8,386.9,232.8,385.5z M233.7,385.5c0,1.2,0.1,2,0.4,2.4
			c0.3,0.4,0.6,0.6,1,0.6c0.4,0,0.8-0.2,1-0.6c0.3-0.4,0.4-1.2,0.4-2.4c0-1.2-0.1-2-0.4-2.4c-0.3-0.4-0.6-0.6-1.1-0.6
			c-0.4,0-0.7,0.2-1,0.5C233.9,383.5,233.7,384.3,233.7,385.5z M243.2,383.6l-0.9,0.1c-0.1-0.4-0.2-0.6-0.3-0.8
			c-0.2-0.3-0.5-0.4-0.9-0.4c-0.3,0-0.5,0.1-0.8,0.2c-0.3,0.2-0.5,0.5-0.7,0.9c-0.2,0.4-0.2,1-0.3,1.7c0.2-0.3,0.5-0.6,0.8-0.7
			c0.3-0.2,0.6-0.2,1-0.2c0.6,0,1.1,0.2,1.5,0.7c0.4,0.4,0.6,1,0.6,1.7c0,0.5-0.1,0.9-0.3,1.3c-0.2,0.4-0.5,0.7-0.8,0.9
			c-0.3,0.2-0.7,0.3-1.2,0.3c-0.8,0-1.4-0.3-1.8-0.8c-0.5-0.6-0.7-1.5-0.7-2.7c0-1.4,0.3-2.5,0.8-3.1c0.5-0.6,1.1-0.8,1.9-0.8
			c0.6,0,1.1,0.2,1.4,0.5C242.9,382.6,243.1,383,243.2,383.6z M239.5,386.7c0,0.3,0.1,0.6,0.2,0.9c0.1,0.3,0.3,0.5,0.6,0.7
			c0.2,0.1,0.5,0.2,0.7,0.2c0.4,0,0.7-0.2,1-0.5c0.3-0.3,0.4-0.7,0.4-1.3c0-0.5-0.1-0.9-0.4-1.2c-0.3-0.3-0.6-0.4-1-0.4
			c-0.4,0-0.8,0.1-1,0.4C239.6,385.9,239.5,386.3,239.5,386.7z"/>
		<path class="st4" d="M276.9,385.5c0-0.9,0.1-1.6,0.3-2.1c0.2-0.5,0.4-0.9,0.8-1.2c0.4-0.3,0.8-0.4,1.3-0.4c0.4,0,0.7,0.1,1,0.2
			c0.3,0.2,0.5,0.4,0.7,0.7c0.2,0.3,0.3,0.7,0.5,1.1c0.1,0.4,0.2,1,0.2,1.7c0,0.9-0.1,1.6-0.3,2.1c-0.2,0.5-0.4,0.9-0.8,1.2
			c-0.4,0.3-0.8,0.4-1.3,0.4c-0.7,0-1.3-0.3-1.7-0.8C277.1,387.9,276.9,386.9,276.9,385.5z M277.8,385.5c0,1.2,0.1,2,0.4,2.4
			c0.3,0.4,0.6,0.6,1,0.6s0.8-0.2,1-0.6c0.3-0.4,0.4-1.2,0.4-2.4c0-1.2-0.1-2-0.4-2.4c-0.3-0.4-0.6-0.6-1.1-0.6
			c-0.4,0-0.7,0.2-1,0.5C278,383.5,277.8,384.3,277.8,385.5z M284,385.1c-0.4-0.1-0.7-0.3-0.8-0.6c-0.2-0.3-0.3-0.6-0.3-0.9
			c0-0.5,0.2-1,0.6-1.4c0.4-0.4,0.9-0.5,1.5-0.5c0.6,0,1.2,0.2,1.6,0.6c0.4,0.4,0.6,0.8,0.6,1.4c0,0.3-0.1,0.6-0.3,0.9
			c-0.2,0.3-0.4,0.4-0.8,0.6c0.5,0.1,0.8,0.4,1,0.7c0.2,0.3,0.4,0.7,0.4,1.2c0,0.6-0.2,1.2-0.7,1.6c-0.4,0.4-1,0.6-1.8,0.6
			c-0.7,0-1.3-0.2-1.8-0.6c-0.4-0.4-0.7-1-0.7-1.6c0-0.5,0.1-0.9,0.4-1.2C283.2,385.5,283.5,385.3,284,385.1z M283.8,383.6
			c0,0.3,0.1,0.6,0.3,0.9c0.2,0.2,0.5,0.3,0.9,0.3c0.3,0,0.6-0.1,0.9-0.3c0.2-0.2,0.3-0.5,0.3-0.8c0-0.3-0.1-0.6-0.3-0.8
			c-0.2-0.2-0.5-0.3-0.9-0.3c-0.3,0-0.6,0.1-0.9,0.3C283.9,383,283.8,383.3,283.8,383.6z M283.5,387c0,0.3,0.1,0.5,0.2,0.7
			c0.1,0.2,0.3,0.4,0.5,0.6c0.2,0.1,0.5,0.2,0.8,0.2c0.4,0,0.8-0.1,1.1-0.4c0.3-0.3,0.4-0.6,0.4-1.1c0-0.4-0.1-0.8-0.4-1.1
			c-0.3-0.3-0.6-0.4-1.1-0.4c-0.4,0-0.8,0.1-1.1,0.4C283.6,386.2,283.5,386.6,283.5,387z"/>
		<path class="st4" d="M324.4,389.1h-0.9v-5.8c-0.2,0.2-0.5,0.4-0.9,0.6c-0.4,0.2-0.7,0.4-0.9,0.5v-0.9c0.5-0.2,0.9-0.5,1.3-0.9
			c0.4-0.3,0.6-0.7,0.8-1h0.6V389.1z M326.7,385.5c0-0.9,0.1-1.6,0.3-2.1c0.2-0.5,0.4-0.9,0.8-1.2c0.4-0.3,0.8-0.4,1.3-0.4
			c0.4,0,0.7,0.1,1,0.2c0.3,0.2,0.5,0.4,0.7,0.7c0.2,0.3,0.3,0.7,0.5,1.1c0.1,0.4,0.2,1,0.2,1.7c0,0.9-0.1,1.6-0.3,2.1
			c-0.2,0.5-0.4,0.9-0.8,1.2c-0.4,0.3-0.8,0.4-1.3,0.4c-0.7,0-1.3-0.3-1.7-0.8C326.9,387.9,326.7,386.9,326.7,385.5z M327.6,385.5
			c0,1.2,0.1,2,0.4,2.4c0.3,0.4,0.6,0.6,1,0.6s0.8-0.2,1-0.6c0.3-0.4,0.4-1.2,0.4-2.4c0-1.2-0.1-2-0.4-2.4c-0.3-0.4-0.6-0.6-1.1-0.6
			c-0.4,0-0.7,0.2-1,0.5C327.8,383.5,327.6,384.3,327.6,385.5z"/>
		<path class="st4" d="M368.5,389.1h-0.9v-5.8c-0.2,0.2-0.5,0.4-0.9,0.6c-0.4,0.2-0.7,0.4-0.9,0.5v-0.9c0.5-0.2,0.9-0.5,1.3-0.9
			c0.4-0.3,0.6-0.7,0.8-1h0.6V389.1z M375.5,388.3v0.9h-4.9c0-0.2,0-0.4,0.1-0.6c0.1-0.3,0.3-0.7,0.6-1c0.3-0.3,0.7-0.7,1.2-1.1
			c0.8-0.7,1.3-1.2,1.6-1.6c0.3-0.4,0.4-0.7,0.4-1.1c0-0.4-0.1-0.7-0.4-0.9c-0.3-0.2-0.6-0.4-1-0.4c-0.4,0-0.8,0.1-1,0.4
			c-0.3,0.3-0.4,0.6-0.4,1.1l-0.9-0.1c0.1-0.7,0.3-1.2,0.7-1.6c0.4-0.4,1-0.5,1.7-0.5c0.7,0,1.3,0.2,1.7,0.6
			c0.4,0.4,0.6,0.9,0.6,1.5c0,0.3-0.1,0.6-0.2,0.9c-0.1,0.3-0.3,0.6-0.6,0.9c-0.3,0.3-0.7,0.7-1.4,1.3c-0.5,0.5-0.9,0.8-1,0.9
			c-0.2,0.2-0.3,0.3-0.4,0.5H375.5z"/>
		<path class="st4" d="M412.6,389.1h-0.9v-5.8c-0.2,0.2-0.5,0.4-0.9,0.6c-0.4,0.2-0.7,0.4-0.9,0.5v-0.9c0.5-0.2,0.9-0.5,1.3-0.9
			c0.4-0.3,0.6-0.7,0.8-1h0.6V389.1z M417.8,389.1v-1.8h-3.2v-0.8l3.4-4.8h0.7v4.8h1v0.8h-1v1.8H417.8z M417.8,386.5v-3.3l-2.3,3.3
			H417.8z"/>
		<path class="st4" d="M456.7,389.1h-0.9v-5.8c-0.2,0.2-0.5,0.4-0.9,0.6c-0.4,0.2-0.7,0.4-0.9,0.5v-0.9c0.5-0.2,0.9-0.5,1.3-0.9
			c0.4-0.3,0.6-0.7,0.8-1h0.6V389.1z M463.7,383.6l-0.9,0.1c-0.1-0.4-0.2-0.6-0.3-0.8c-0.2-0.3-0.5-0.4-0.9-0.4
			c-0.3,0-0.5,0.1-0.8,0.2c-0.3,0.2-0.5,0.5-0.7,0.9c-0.2,0.4-0.2,1-0.3,1.7c0.2-0.3,0.5-0.6,0.8-0.7c0.3-0.2,0.6-0.2,1-0.2
			c0.6,0,1.1,0.2,1.5,0.7c0.4,0.4,0.6,1,0.6,1.7c0,0.5-0.1,0.9-0.3,1.3c-0.2,0.4-0.5,0.7-0.8,0.9s-0.7,0.3-1.2,0.3
			c-0.8,0-1.4-0.3-1.8-0.8c-0.5-0.6-0.7-1.5-0.7-2.7c0-1.4,0.3-2.5,0.8-3.1c0.5-0.6,1.1-0.8,1.9-0.8c0.6,0,1.1,0.2,1.4,0.5
			C463.4,382.6,463.6,383,463.7,383.6z M460,386.7c0,0.3,0.1,0.6,0.2,0.9c0.1,0.3,0.3,0.5,0.6,0.7c0.2,0.1,0.5,0.2,0.7,0.2
			c0.4,0,0.7-0.2,1-0.5c0.3-0.3,0.4-0.7,0.4-1.3c0-0.5-0.1-0.9-0.4-1.2c-0.3-0.3-0.6-0.4-1-0.4c-0.4,0-0.8,0.1-1,0.4
			C460.1,385.9,460,386.3,460,386.7z"/>
		<path class="st4" d="M500.8,389.1h-0.9v-5.8c-0.2,0.2-0.5,0.4-0.9,0.6c-0.4,0.2-0.7,0.4-0.9,0.5v-0.9c0.5-0.2,0.9-0.5,1.3-0.9
			c0.4-0.3,0.6-0.7,0.8-1h0.6V389.1z M504.5,385.1c-0.4-0.1-0.7-0.3-0.8-0.6c-0.2-0.3-0.3-0.6-0.3-0.9c0-0.5,0.2-1,0.6-1.4
			c0.4-0.4,0.9-0.5,1.5-0.5c0.6,0,1.2,0.2,1.6,0.6c0.4,0.4,0.6,0.8,0.6,1.4c0,0.3-0.1,0.6-0.3,0.9c-0.2,0.3-0.4,0.4-0.8,0.6
			c0.5,0.1,0.8,0.4,1,0.7c0.2,0.3,0.4,0.7,0.4,1.2c0,0.6-0.2,1.2-0.7,1.6c-0.4,0.4-1,0.6-1.8,0.6c-0.7,0-1.3-0.2-1.8-0.6
			c-0.4-0.4-0.7-1-0.7-1.6c0-0.5,0.1-0.9,0.4-1.2C503.7,385.5,504,385.3,504.5,385.1z M504.3,383.6c0,0.3,0.1,0.6,0.3,0.9
			c0.2,0.2,0.5,0.3,0.9,0.3c0.3,0,0.6-0.1,0.9-0.3c0.2-0.2,0.3-0.5,0.3-0.8c0-0.3-0.1-0.6-0.3-0.8c-0.2-0.2-0.5-0.3-0.9-0.3
			c-0.3,0-0.6,0.1-0.9,0.3C504.4,383,504.3,383.3,504.3,383.6z M504,387c0,0.3,0.1,0.5,0.2,0.7c0.1,0.2,0.3,0.4,0.5,0.6
			c0.2,0.1,0.5,0.2,0.8,0.2c0.4,0,0.8-0.1,1.1-0.4c0.3-0.3,0.4-0.6,0.4-1.1c0-0.4-0.1-0.8-0.4-1.1c-0.3-0.3-0.6-0.4-1.1-0.4
			c-0.4,0-0.8,0.1-1.1,0.4C504.1,386.2,504,386.6,504,387z"/>
		<path class="st4" d="M546.2,388.3v0.9h-4.9c0-0.2,0-0.4,0.1-0.6c0.1-0.3,0.3-0.7,0.6-1c0.3-0.3,0.7-0.7,1.2-1.1
			c0.8-0.7,1.3-1.2,1.6-1.6c0.3-0.4,0.4-0.7,0.4-1.1c0-0.4-0.1-0.7-0.4-0.9c-0.3-0.2-0.6-0.4-1-0.4c-0.4,0-0.8,0.1-1,0.4
			c-0.3,0.3-0.4,0.6-0.4,1.1l-0.9-0.1c0.1-0.7,0.3-1.2,0.7-1.6c0.4-0.4,1-0.5,1.7-0.5c0.7,0,1.3,0.2,1.7,0.6
			c0.4,0.4,0.6,0.9,0.6,1.5c0,0.3-0.1,0.6-0.2,0.9c-0.1,0.3-0.3,0.6-0.6,0.9c-0.3,0.3-0.7,0.7-1.4,1.3c-0.5,0.5-0.9,0.8-1,0.9
			c-0.2,0.2-0.3,0.3-0.4,0.5H546.2z M547.2,385.5c0-0.9,0.1-1.6,0.3-2.1c0.2-0.5,0.4-0.9,0.8-1.2c0.4-0.3,0.8-0.4,1.3-0.4
			c0.4,0,0.7,0.1,1,0.2c0.3,0.2,0.5,0.4,0.7,0.7c0.2,0.3,0.3,0.7,0.5,1.1c0.1,0.4,0.2,1,0.2,1.7c0,0.9-0.1,1.6-0.3,2.1
			c-0.2,0.5-0.4,0.9-0.8,1.2c-0.4,0.3-0.8,0.4-1.3,0.4c-0.7,0-1.3-0.3-1.7-0.8C547.4,387.9,547.2,386.9,547.2,385.5z M548.1,385.5
			c0,1.2,0.1,2,0.4,2.4c0.3,0.4,0.6,0.6,1,0.6s0.8-0.2,1-0.6c0.3-0.4,0.4-1.2,0.4-2.4c0-1.2-0.1-2-0.4-2.4c-0.3-0.4-0.6-0.6-1.1-0.6
			c-0.4,0-0.7,0.2-1,0.5C548.3,383.5,548.1,384.3,548.1,385.5z"/>
		<path class="st4" d="M590.3,388.3v0.9h-4.9c0-0.2,0-0.4,0.1-0.6c0.1-0.3,0.3-0.7,0.6-1c0.3-0.3,0.7-0.7,1.2-1.1
			c0.8-0.7,1.3-1.2,1.6-1.6c0.3-0.4,0.4-0.7,0.4-1.1c0-0.4-0.1-0.7-0.4-0.9c-0.3-0.2-0.6-0.4-1-0.4c-0.4,0-0.8,0.1-1,0.4
			c-0.3,0.3-0.4,0.6-0.4,1.1l-0.9-0.1c0.1-0.7,0.3-1.2,0.7-1.6c0.4-0.4,1-0.5,1.7-0.5c0.7,0,1.3,0.2,1.7,0.6
			c0.4,0.4,0.6,0.9,0.6,1.5c0,0.3-0.1,0.6-0.2,0.9c-0.1,0.3-0.3,0.6-0.6,0.9c-0.3,0.3-0.7,0.7-1.4,1.3c-0.5,0.5-0.9,0.8-1,0.9
			c-0.2,0.2-0.3,0.3-0.4,0.5H590.3z M596,388.3v0.9h-4.9c0-0.2,0-0.4,0.1-0.6c0.1-0.3,0.3-0.7,0.6-1c0.3-0.3,0.7-0.7,1.2-1.1
			c0.8-0.7,1.3-1.2,1.6-1.6c0.3-0.4,0.4-0.7,0.4-1.1c0-0.4-0.1-0.7-0.4-0.9c-0.3-0.2-0.6-0.4-1-0.4c-0.4,0-0.8,0.1-1,0.4
			c-0.3,0.3-0.4,0.6-0.4,1.1l-0.9-0.1c0.1-0.7,0.3-1.2,0.7-1.6c0.4-0.4,1-0.5,1.7-0.5c0.7,0,1.3,0.2,1.7,0.6
			c0.4,0.4,0.6,0.9,0.6,1.5c0,0.3-0.1,0.6-0.2,0.9c-0.1,0.3-0.3,0.6-0.6,0.9c-0.3,0.3-0.7,0.7-1.4,1.3c-0.5,0.5-0.9,0.8-1,0.9
			c-0.2,0.2-0.3,0.3-0.4,0.5H596z"/>
		<path class="st4" d="M634.4,388.3v0.9h-4.9c0-0.2,0-0.4,0.1-0.6c0.1-0.3,0.3-0.7,0.6-1c0.3-0.3,0.7-0.7,1.2-1.1
			c0.8-0.7,1.3-1.2,1.6-1.6c0.3-0.4,0.4-0.7,0.4-1.1c0-0.4-0.1-0.7-0.4-0.9c-0.3-0.2-0.6-0.4-1-0.4c-0.4,0-0.8,0.1-1,0.4
			c-0.3,0.3-0.4,0.6-0.4,1.1l-0.9-0.1c0.1-0.7,0.3-1.2,0.7-1.6c0.4-0.4,1-0.5,1.7-0.5c0.7,0,1.3,0.2,1.7,0.6
			c0.4,0.4,0.6,0.9,0.6,1.5c0,0.3-0.1,0.6-0.2,0.9c-0.1,0.3-0.3,0.6-0.6,0.9c-0.3,0.3-0.7,0.7-1.4,1.3c-0.5,0.5-0.9,0.8-1,0.9
			c-0.2,0.2-0.3,0.3-0.4,0.5H634.4z M638.3,389.1v-1.8h-3.2v-0.8l3.4-4.8h0.7v4.8h1v0.8h-1v1.8H638.3z M638.3,386.5v-3.3l-2.3,3.3
			H638.3z"/>
		<path class="st4" d="M678.5,388.3v0.9h-4.9c0-0.2,0-0.4,0.1-0.6c0.1-0.3,0.3-0.7,0.6-1c0.3-0.3,0.7-0.7,1.2-1.1
			c0.8-0.7,1.3-1.2,1.6-1.6c0.3-0.4,0.4-0.7,0.4-1.1c0-0.4-0.1-0.7-0.4-0.9c-0.3-0.2-0.6-0.4-1-0.4c-0.4,0-0.8,0.1-1,0.4
			c-0.3,0.3-0.4,0.6-0.4,1.1l-0.9-0.1c0.1-0.7,0.3-1.2,0.7-1.6c0.4-0.4,1-0.5,1.7-0.5c0.7,0,1.3,0.2,1.7,0.6
			c0.4,0.4,0.6,0.9,0.6,1.5c0,0.3-0.1,0.6-0.2,0.9c-0.1,0.3-0.3,0.6-0.6,0.9c-0.3,0.3-0.7,0.7-1.4,1.3c-0.5,0.5-0.9,0.8-1,0.9
			c-0.2,0.2-0.3,0.3-0.4,0.5H678.5z M684.2,383.6l-0.9,0.1c-0.1-0.4-0.2-0.6-0.3-0.8c-0.2-0.3-0.5-0.4-0.9-0.4
			c-0.3,0-0.5,0.1-0.8,0.2c-0.3,0.2-0.5,0.5-0.7,0.9c-0.2,0.4-0.2,1-0.3,1.7c0.2-0.3,0.5-0.6,0.8-0.7c0.3-0.2,0.6-0.2,1-0.2
			c0.6,0,1.1,0.2,1.5,0.7c0.4,0.4,0.6,1,0.6,1.7c0,0.5-0.1,0.9-0.3,1.3c-0.2,0.4-0.5,0.7-0.8,0.9c-0.3,0.2-0.7,0.3-1.2,0.3
			c-0.8,0-1.4-0.3-1.8-0.8c-0.5-0.6-0.7-1.5-0.7-2.7c0-1.4,0.3-2.5,0.8-3.1c0.5-0.6,1.1-0.8,1.9-0.8c0.6,0,1.1,0.2,1.4,0.5
			C683.9,382.6,684.1,383,684.2,383.6z M680.5,386.7c0,0.3,0.1,0.6,0.2,0.9c0.1,0.3,0.3,0.5,0.6,0.7c0.2,0.1,0.5,0.2,0.7,0.2
			c0.4,0,0.7-0.2,1-0.5c0.3-0.3,0.4-0.7,0.4-1.3c0-0.5-0.1-0.9-0.4-1.2c-0.3-0.3-0.6-0.4-1-0.4c-0.4,0-0.8,0.1-1,0.4
			C680.6,385.9,680.5,386.3,680.5,386.7z"/>
		<path class="st4" d="M722.6,388.3v0.9h-4.9c0-0.2,0-0.4,0.1-0.6c0.1-0.3,0.3-0.7,0.6-1c0.3-0.3,0.7-0.7,1.2-1.1
			c0.8-0.7,1.3-1.2,1.6-1.6c0.3-0.4,0.4-0.7,0.4-1.1c0-0.4-0.1-0.7-0.4-0.9c-0.3-0.2-0.6-0.4-1-0.4c-0.4,0-0.8,0.1-1,0.4
			c-0.3,0.3-0.4,0.6-0.4,1.1l-0.9-0.1c0.1-0.7,0.3-1.2,0.7-1.6c0.4-0.4,1-0.5,1.7-0.5c0.7,0,1.3,0.2,1.7,0.6
			c0.4,0.4,0.6,0.9,0.6,1.5c0,0.3-0.1,0.6-0.2,0.9c-0.1,0.3-0.3,0.6-0.6,0.9c-0.3,0.3-0.7,0.7-1.4,1.3c-0.5,0.5-0.9,0.8-1,0.9
			c-0.2,0.2-0.3,0.3-0.4,0.5H722.6z M725,385.1c-0.4-0.1-0.7-0.3-0.8-0.6c-0.2-0.3-0.3-0.6-0.3-0.9c0-0.5,0.2-1,0.6-1.4
			c0.4-0.4,0.9-0.5,1.5-0.5c0.6,0,1.2,0.2,1.5,0.6c0.4,0.4,0.6,0.8,0.6,1.4c0,0.3-0.1,0.6-0.3,0.9c-0.2,0.3-0.4,0.4-0.8,0.6
			c0.5,0.1,0.8,0.4,1,0.7c0.2,0.3,0.4,0.7,0.4,1.2c0,0.6-0.2,1.2-0.7,1.6c-0.4,0.4-1,0.6-1.8,0.6c-0.7,0-1.3-0.2-1.8-0.6
			c-0.4-0.4-0.7-1-0.7-1.6c0-0.5,0.1-0.9,0.4-1.2C724.2,385.5,724.5,385.3,725,385.1z M724.8,383.6c0,0.3,0.1,0.6,0.3,0.9
			c0.2,0.2,0.5,0.3,0.9,0.3c0.3,0,0.6-0.1,0.9-0.3c0.2-0.2,0.3-0.5,0.3-0.8c0-0.3-0.1-0.6-0.3-0.8c-0.2-0.2-0.5-0.3-0.9-0.3
			c-0.3,0-0.6,0.1-0.9,0.3C724.9,383,724.8,383.3,724.8,383.6z M724.5,387c0,0.3,0.1,0.5,0.2,0.7c0.1,0.2,0.3,0.4,0.5,0.6
			c0.2,0.1,0.5,0.2,0.8,0.2c0.4,0,0.8-0.1,1.1-0.4c0.3-0.3,0.4-0.6,0.4-1.1c0-0.4-0.1-0.8-0.4-1.1c-0.3-0.3-0.6-0.4-1.1-0.4
			c-0.4,0-0.8,0.1-1.1,0.4C724.6,386.2,724.5,386.6,724.5,387z"/>
		<path class="st4" d="M762,387.2l0.9-0.1c0.1,0.5,0.3,0.9,0.5,1.1c0.3,0.2,0.6,0.3,0.9,0.3c0.4,0,0.8-0.1,1.1-0.4
			c0.3-0.3,0.4-0.7,0.4-1.1c0-0.4-0.1-0.8-0.4-1c-0.3-0.3-0.6-0.4-1-0.4c-0.2,0-0.4,0-0.6,0.1l0.1-0.8c0.1,0,0.1,0,0.1,0
			c0.4,0,0.7-0.1,1-0.3c0.3-0.2,0.5-0.5,0.5-0.9c0-0.3-0.1-0.6-0.3-0.8c-0.2-0.2-0.5-0.3-0.9-0.3c-0.4,0-0.6,0.1-0.9,0.3
			c-0.2,0.2-0.4,0.6-0.5,1l-0.9-0.2c0.1-0.6,0.4-1.1,0.8-1.4c0.4-0.3,0.9-0.5,1.5-0.5c0.4,0,0.8,0.1,1.1,0.3
			c0.3,0.2,0.6,0.4,0.8,0.7c0.2,0.3,0.3,0.6,0.3,0.9c0,0.3-0.1,0.6-0.3,0.9c-0.2,0.3-0.4,0.5-0.8,0.6c0.4,0.1,0.8,0.3,1,0.6
			c0.2,0.3,0.4,0.7,0.4,1.2c0,0.6-0.2,1.2-0.7,1.6c-0.5,0.4-1.1,0.7-1.8,0.7c-0.6,0-1.2-0.2-1.6-0.6
			C762.3,388.3,762,387.8,762,387.2z M767.7,385.5c0-0.9,0.1-1.6,0.3-2.1c0.2-0.5,0.4-0.9,0.8-1.2c0.4-0.3,0.8-0.4,1.3-0.4
			c0.4,0,0.7,0.1,1,0.2c0.3,0.2,0.5,0.4,0.7,0.7c0.2,0.3,0.3,0.7,0.5,1.1c0.1,0.4,0.2,1,0.2,1.7c0,0.9-0.1,1.6-0.3,2.1
			c-0.2,0.5-0.4,0.9-0.8,1.2c-0.4,0.3-0.8,0.4-1.3,0.4c-0.7,0-1.3-0.3-1.7-0.8C767.9,387.9,767.7,386.9,767.7,385.5z M768.6,385.5
			c0,1.2,0.1,2,0.4,2.4c0.3,0.4,0.6,0.6,1,0.6c0.4,0,0.8-0.2,1-0.6c0.3-0.4,0.4-1.2,0.4-2.4c0-1.2-0.1-2-0.4-2.4
			c-0.3-0.4-0.6-0.6-1.1-0.6c-0.4,0-0.7,0.2-1,0.5C768.8,383.5,768.6,384.3,768.6,385.5z"/>
		<path class="st4" d="M316.2,415.9c-0.1-0.8-0.4-1.5-1.1-1.9c-0.7-0.5-1.5-0.7-2.6-0.7c-0.9,0-1.6,0.2-2.1,0.6
			c-0.5,0.4-0.8,1-0.8,1.7c0,0.5,0.3,0.9,0.8,1.2c0.5,0.3,1.7,0.6,3.4,1c2.5,0.6,4.2,1.2,5,1.9c0.8,0.7,1.3,1.9,1.3,3.5
			c0,1.6-0.6,2.9-1.9,3.9c-1.3,0.9-3,1.4-5.2,1.4c-2.2,0-3.9-0.5-5.1-1.5c-1.2-1-1.9-2.4-2-4.3h3.5c0,0.9,0.4,1.6,1,2.1
			c0.6,0.5,1.5,0.7,2.6,0.7c1.1,0,2-0.2,2.7-0.6c0.6-0.4,1-0.9,1-1.5c0-0.6-0.2-1.1-0.7-1.4c-0.5-0.3-1.4-0.6-2.9-0.9
			c-2.7-0.6-4.6-1.3-5.5-2c-0.9-0.7-1.4-1.8-1.4-3.3c0-1.7,0.6-3,1.8-4c1.2-1,2.8-1.5,4.9-1.5c1.9,0,3.5,0.5,4.7,1.5s1.9,2.4,2,4.1
			H316.2z M327.7,428.3c-1.9,0-3.4-0.6-4.5-1.8c-1-1.2-1.6-2.9-1.6-5.1c0-2,0.5-3.6,1.6-4.8c1.1-1.2,2.6-1.7,4.5-1.7
			c1.9,0,3.4,0.6,4.5,1.8c1.1,1.2,1.6,2.8,1.6,5c0,0.2,0,0.5-0.1,0.8H325c0.1,1,0.3,1.8,0.7,2.3c0.5,0.6,1.2,0.9,2.3,0.9
			c0.5,0,1-0.1,1.4-0.4c0.4-0.3,0.7-0.6,0.8-1h3.4c-0.3,1.3-1,2.3-2,3C330.5,428,329.2,428.3,327.7,428.3z M330.2,420.3
			c-0.1-0.8-0.3-1.4-0.6-1.8c-0.4-0.6-1.1-0.9-2-0.9c-0.9,0-1.5,0.3-2,1c-0.3,0.4-0.5,1-0.6,1.7H330.2z M335.9,415.2h1.6h1.6v1.9
			l0.2-0.3c0.9-1.3,2.1-1.9,3.6-1.9c1.6,0,2.9,0.6,3.9,1.8c1,1.2,1.5,2.8,1.5,4.7c0,2.1-0.5,3.7-1.5,5c-1,1.3-2.3,1.9-3.9,1.9
			c-1.5,0-2.7-0.6-3.6-1.8l-0.1-0.1v6.5h-1.7h-1.7V415.2z M341.9,425.6c0.9,0,1.6-0.3,2.1-1c0.5-0.7,0.8-1.6,0.8-2.8
			c0-1.2-0.3-2.2-0.8-2.9c-0.5-0.7-1.2-1-2.1-1c-0.9,0-1.6,0.4-2.1,1.1c-0.5,0.7-0.8,1.7-0.8,3c0,1.2,0.2,2.1,0.8,2.7
			C340.4,425.2,341.1,425.6,341.9,425.6z M356.5,428.1c-0.6,0-1.3,0.1-2.1,0.1c-1.2,0-2-0.2-2.6-0.6c-0.5-0.4-0.8-1.1-0.8-2.1v-7.8
			h-1.8v-2.4h1.8v-3.4h3.4v3.4h2.1v2.4h-2.1v7.2c0,0.3,0.1,0.5,0.3,0.6c0.2,0.1,0.5,0.1,1.1,0.1h0.7V428.1z M363.7,428.3
			c-1.9,0-3.4-0.6-4.5-1.8c-1-1.2-1.6-2.9-1.6-5.1c0-2,0.5-3.6,1.6-4.8c1.1-1.2,2.6-1.7,4.5-1.7c1.9,0,3.4,0.6,4.5,1.8
			c1.1,1.2,1.6,2.8,1.6,5c0,0.2,0,0.5-0.1,0.8H361c0.1,1,0.3,1.8,0.7,2.3c0.5,0.6,1.2,0.9,2.3,0.9c0.5,0,1-0.1,1.4-0.4
			c0.4-0.3,0.7-0.6,0.8-1h3.4c-0.3,1.3-1,2.3-2,3C366.6,428,365.3,428.3,363.7,428.3z M366.2,420.3c-0.1-0.8-0.3-1.4-0.6-1.8
			c-0.4-0.6-1.1-0.9-2-0.9c-0.9,0-1.5,0.3-2,1c-0.3,0.4-0.5,1-0.6,1.7H366.2z M372,428v-12.8h1.6h1.6v2.1c0.1-0.4,0.3-0.7,0.6-1
			c0.7-1,1.8-1.4,3.2-1.4c1.1,0,2,0.4,2.8,1.1c0.3,0.3,0.5,0.6,0.7,1l0.4-0.7c0.7-1,1.7-1.4,3-1.4c1.4,0,2.5,0.4,3.2,1.2
			c0.8,0.8,1.2,2,1.2,3.4v8.4h-1.7h-1.7v-7.5c0-1-0.2-1.7-0.5-2.1c-0.3-0.5-0.8-0.7-1.5-0.7c-0.7,0-1.2,0.2-1.6,0.7
			c-0.4,0.4-0.6,1.1-0.6,1.9v7.8h-1.7h-1.7v-8c0-0.8-0.2-1.3-0.5-1.7s-0.8-0.6-1.5-0.6c-0.7,0-1.2,0.2-1.6,0.7
			c-0.4,0.4-0.5,1.1-0.5,1.9v7.8h-1.7H372z M393.2,410.8h1.7h1.7v6.1l0.1-0.1c0.9-1.3,2.1-1.9,3.6-1.9c1.6,0,2.9,0.6,3.9,1.8
			s1.5,2.8,1.5,4.7c0,2.1-0.5,3.7-1.5,5c-1,1.3-2.3,1.9-3.9,1.9c-1.5,0-2.7-0.6-3.6-1.8l-0.1-0.2v1.6h-3.3V410.8z M399.3,425.6
			c0.9,0,1.6-0.3,2.1-1c0.5-0.7,0.8-1.6,0.8-2.8c0-1.2-0.3-2.2-0.8-2.9c-0.5-0.7-1.2-1-2.1-1c-0.9,0-1.6,0.4-2.1,1.1s-0.8,1.7-0.8,3
			c0,1.2,0.3,2.1,0.8,2.7C397.7,425.2,398.4,425.6,399.3,425.6z M413.1,428.3c-1.9,0-3.4-0.6-4.5-1.8c-1-1.2-1.6-2.9-1.6-5.1
			c0-2,0.5-3.6,1.6-4.8c1.1-1.2,2.6-1.7,4.5-1.7c1.9,0,3.4,0.6,4.5,1.8c1.1,1.2,1.6,2.8,1.6,5c0,0.2,0,0.5-0.1,0.8h-8.7
			c0.1,1,0.3,1.8,0.7,2.3c0.5,0.6,1.2,0.9,2.3,0.9c0.5,0,1-0.1,1.4-0.4c0.4-0.3,0.7-0.6,0.8-1h3.4c-0.3,1.3-1,2.3-2,3
			C416,428,414.6,428.3,413.1,428.3z M415.6,420.3c-0.1-0.8-0.3-1.4-0.6-1.8c-0.4-0.6-1.1-0.9-2-0.9c-0.9,0-1.5,0.3-2,1
			c-0.3,0.4-0.5,1-0.6,1.7H415.6z M421.3,428v-12.8h1.6h1.6v2.3c0.1-0.2,0.2-0.5,0.4-0.7c0.8-1.3,1.8-1.9,3.1-1.9l0.8,0v3.4
			c-0.3,0-0.6,0-1,0c-1,0-1.8,0.3-2.3,0.8c-0.5,0.5-0.8,1.3-0.8,2.3v6.6H423H421.3z M430.7,426.3v-1.7h1.8h1.8v3
			c0,1.2-0.3,2.2-0.9,3c-0.6,0.7-1.5,1.3-2.7,1.6v-1.3c0.8-0.3,1.3-0.7,1.6-1.2c0.2-0.4,0.3-0.9,0.4-1.6h-0.9h-1.1V426.3z
			 M454.8,416.3c0,1.3-0.3,2.4-0.9,3.2c-0.6,0.9-1.7,1.8-3.4,2.9c-1.5,1-2.6,1.9-3.2,2.6l0,0h7.5v3h-11.6c0-1.6,0.4-2.9,1.2-4
			c0.8-1.1,2.3-2.4,4.5-4c1-0.7,1.7-1.3,2.1-1.9c0.4-0.6,0.6-1.2,0.6-1.9c0-0.8-0.2-1.4-0.7-1.8c-0.4-0.5-1-0.7-1.7-0.7
			c-0.8,0-1.4,0.3-1.8,0.9s-0.6,1.4-0.6,2.4h-3.3c-0.1-1.9,0.4-3.3,1.5-4.4c1-1.1,2.4-1.6,4.3-1.6c1.7,0,3.1,0.5,4.1,1.5
			C454.3,413.4,454.8,414.7,454.8,416.3z M462.6,428.4c-2,0-3.5-0.7-4.4-2.1c-1-1.4-1.4-3.6-1.5-6.6c0-3,0.5-5.2,1.5-6.7
			s2.4-2.2,4.4-2.2c2,0,3.5,0.7,4.5,2.2s1.4,3.6,1.4,6.6v0.1c0,2.9-0.5,5.1-1.4,6.6C466.1,427.7,464.6,428.4,462.6,428.4z
			 M462.6,425.7c0.9,0,1.5-0.4,1.9-1.3c0.4-0.9,0.6-2.4,0.6-4.6c0-2.2-0.2-3.8-0.6-4.7c-0.4-0.9-1-1.4-1.9-1.4
			c-0.9,0-1.5,0.5-1.9,1.4c-0.4,0.9-0.5,2.5-0.6,4.7c0,2.2,0.2,3.7,0.6,4.6C461,425.3,461.7,425.7,462.6,425.7z M481.5,416.3
			c0,1.3-0.3,2.4-0.9,3.2c-0.6,0.9-1.7,1.8-3.4,2.9c-1.5,1-2.6,1.9-3.2,2.6l0,0h7.5v3h-11.6c0-1.6,0.4-2.9,1.2-4
			c0.8-1.1,2.3-2.4,4.5-4c1-0.7,1.7-1.3,2.1-1.9c0.4-0.6,0.6-1.2,0.6-1.9c0-0.8-0.2-1.4-0.7-1.8c-0.4-0.5-1-0.7-1.7-0.7
			c-0.8,0-1.4,0.3-1.8,0.9c-0.4,0.6-0.6,1.4-0.6,2.4h-3.3c-0.1-1.9,0.4-3.3,1.5-4.4c1-1.1,2.4-1.6,4.3-1.6c1.7,0,3.1,0.5,4.1,1.5
			C481,413.4,481.5,414.7,481.5,416.3z M488.4,428v-11.8h-4.1v-2.4c1,0.1,2-0.2,2.8-0.7c0.8-0.5,1.5-1.3,1.9-2.2h2.8V428H490H488.4z
			"/>
	</g>
</g>
<g id="图层_2">
	<path class="st5" d="M127.8,287.9c2.1,0,3.9-1.7,3.9-3.9s-1.7-3.9-3.9-3.9c-2.1,0-3.9,1.7-3.9,3.9S125.7,287.9,127.8,287.9z"/>
	<path class="st5" d="M149.9,291.1c2.1,0,3.9-1.7,3.9-3.9c0-2.1-1.7-3.9-3.9-3.9c-2.1,0-3.9,1.7-3.9,3.9
		C146,289.4,147.8,291.1,149.9,291.1z"/>
	<path class="st5" d="M171.9,214c2.1,0,3.9-1.7,3.9-3.9c0-2.1-1.7-3.9-3.9-3.9c-2.1,0-3.9,1.7-3.9,3.9
		C168.1,212.3,169.8,214,171.9,214z"/>
	<path class="st5" d="M193.9,214c2.1,0,3.9-1.7,3.9-3.9c0-2.1-1.7-3.9-3.9-3.9c-2.1,0-3.9,1.7-3.9,3.9
		C190.1,212.3,191.8,214,193.9,214z"/>
	<path class="st5" d="M216,167.5c2.1,0,3.9-1.7,3.9-3.9c0-2.1-1.7-3.9-3.9-3.9c-2.1,0-3.9,1.7-3.9,3.9
		C212.2,165.8,213.9,167.5,216,167.5z"/>
	<path class="st5" d="M260.1,209.2c2.1,0,3.9-1.7,3.9-3.9c0-2.1-1.7-3.9-3.9-3.9c-2.1,0-3.9,1.7-3.9,3.9
		C256.3,207.4,258,209.2,260.1,209.2z"/>
	<path class="st5" d="M282.1,258.2c2.1,0,3.9-1.7,3.9-3.9c0-2.1-1.7-3.9-3.9-3.9c-2.1,0-3.9,1.7-3.9,3.9
		C278.3,256.4,280,258.2,282.1,258.2z"/>
	<path class="st5" d="M304.2,265.3c2.1,0,3.9-1.7,3.9-3.9c0-2.1-1.7-3.9-3.9-3.9c-2.1,0-3.9,1.7-3.9,3.9
		C300.4,263.5,302.1,265.3,304.2,265.3z"/>
	<path class="st5" d="M326.3,53.3c2.1,0,3.9-1.7,3.9-3.9c0-2.1-1.7-3.9-3.9-3.9c-2.1,0-3.9,1.7-3.9,3.9
		C322.4,51.6,324.1,53.3,326.3,53.3z"/>
	<path class="st5" d="M348.3,250.6c2.1,0,3.9-1.7,3.9-3.9c0-2.1-1.7-3.9-3.9-3.9c-2.1,0-3.9,1.7-3.9,3.9
		C344.4,248.9,346.1,250.6,348.3,250.6z"/>
	<path class="st5" d="M370.4,167.7c2.1,0,3.9-1.7,3.9-3.9c0-2.1-1.7-3.9-3.9-3.9c-2.1,0-3.9,1.7-3.9,3.9
		C366.5,166,368.2,167.7,370.4,167.7z"/>
	<path class="st5" d="M392.4,325.4c2.1,0,3.9-1.7,3.9-3.9c0-2.1-1.7-3.9-3.9-3.9c-2.1,0-3.9,1.7-3.9,3.9
		C388.5,323.7,390.2,325.4,392.4,325.4z"/>
	<path class="st5" d="M414.5,313.1c2.1,0,3.9-1.7,3.9-3.9c0-2.1-1.7-3.9-3.9-3.9c-2.1,0-3.9,1.7-3.9,3.9
		C410.6,311.3,412.3,313.1,414.5,313.1z"/>
	<path class="st5" d="M436.5,320.3c2.1,0,3.9-1.7,3.9-3.9s-1.7-3.9-3.9-3.9c-2.1,0-3.9,1.7-3.9,3.9S434.4,320.3,436.5,320.3z"/>
	<path class="st5" d="M458.6,359.7c2.1,0,3.9-1.7,3.9-3.9c0-2.1-1.7-3.9-3.9-3.9c-2.1,0-3.9,1.7-3.9,3.9
		C454.7,358,456.5,359.7,458.6,359.7z"/>
	<path class="st5" d="M480.6,171.9c2.1,0,3.9-1.7,3.9-3.9c0-2.1-1.7-3.9-3.9-3.9c-2.1,0-3.9,1.7-3.9,3.9
		C476.7,170.2,478.5,171.9,480.6,171.9z"/>
	<path class="st5" d="M502.6,117.8c2.1,0,3.9-1.7,3.9-3.9c0-2.1-1.7-3.9-3.9-3.9s-3.9,1.7-3.9,3.9
		C498.8,116,500.5,117.8,502.6,117.8z"/>
	<path class="st5" d="M524.7,277.6c2.1,0,3.9-1.7,3.9-3.9c0-2.1-1.7-3.9-3.9-3.9c-2.1,0-3.9,1.7-3.9,3.9
		C520.9,275.9,522.6,277.6,524.7,277.6z"/>
	<path class="st5" d="M546.7,305c2.1,0,3.9-1.7,3.9-3.9c0-2.1-1.7-3.9-3.9-3.9c-2.1,0-3.9,1.7-3.9,3.9
		C542.9,303.3,544.6,305,546.7,305z"/>
	<path class="st5" d="M568.8,293.3c2.1,0,3.9-1.7,3.9-3.9c0-2.1-1.7-3.9-3.9-3.9c-2.1,0-3.9,1.7-3.9,3.9
		C565,291.6,566.7,293.3,568.8,293.3z"/>
	<path class="st5" d="M590.8,242.5c2.1,0,3.9-1.7,3.9-3.9c0-2.1-1.7-3.9-3.9-3.9c-2.1,0-3.9,1.7-3.9,3.9
		C587,240.8,588.7,242.5,590.8,242.5z"/>
	<path class="st5" d="M612.9,356.6c2.1,0,3.9-1.7,3.9-3.9c0-2.1-1.7-3.9-3.9-3.9c-2.1,0-3.9,1.7-3.9,3.9
		C609.1,354.8,610.8,356.6,612.9,356.6z"/>
	<path class="st5" d="M634.9,219.7c2.1,0,3.9-1.7,3.9-3.9c0-2.1-1.7-3.9-3.9-3.9c-2.1,0-3.9,1.7-3.9,3.9
		C631.1,218,632.8,219.7,634.9,219.7z"/>
	<path class="st5" d="M657,143.6c2.1,0,3.9-1.7,3.9-3.9c0-2.1-1.7-3.9-3.9-3.9c-2.1,0-3.9,1.7-3.9,3.9
		C653.1,141.8,654.8,143.6,657,143.6z"/>
	<path class="st5" d="M679.1,304.6c2.1,0,3.9-1.7,3.9-3.9c0-2.1-1.7-3.9-3.9-3.9c-2.1,0-3.9,1.7-3.9,3.9
		C675.2,302.9,676.9,304.6,679.1,304.6z"/>
	<path class="st5" d="M701.1,285.1c2.1,0,3.9-1.7,3.9-3.9c0-2.1-1.7-3.9-3.9-3.9s-3.9,1.7-3.9,3.9
		C697.2,283.3,698.9,285.1,701.1,285.1z"/>
	<path class="st5" d="M723.2,254.4c2.1,0,3.9-1.7,3.9-3.9c0-2.1-1.7-3.9-3.9-3.9c-2.1,0-3.9,1.7-3.9,3.9
		C719.3,252.7,721,254.4,723.2,254.4z"/>
	<path class="st5" d="M745.2,258.8c2.1,0,3.9-1.7,3.9-3.9c0-2.1-1.7-3.9-3.9-3.9c-2.1,0-3.9,1.7-3.9,3.9
		C741.3,257,743.1,258.8,745.2,258.8z"/>
	<path class="st5" d="M767.2,272.5c2.1,0,3.9-1.7,3.9-3.9s-1.7-3.9-3.9-3.9c-2.1,0-3.9,1.7-3.9,3.9S765.1,272.5,767.2,272.5z"/>
</g>
</svg>
